<?xml version="1.0" standalone="no"?>
<!DOCTYPE svg PUBLIC "-//W3C//DTD SVG 20010904//EN"
 "http://www.w3.org/TR/2001/REC-SVG-20010904/DTD/svg10.dtd">
<svg version="1.0" xmlns="http://www.w3.org/2000/svg"
 width="512.000000pt" height="512.000000pt" viewBox="0 0 512.000000 512.000000"
 preserveAspectRatio="xMidYMid meet">
<metadata>
Created by potrace 1.14, written by Peter Selinger 2001-2017
</metadata>
<g transform="translate(0.000000,512.000000) scale(0.100000,-0.100000)"
fill="#000000" stroke="none">
<path d="M4010 4881 c0 -4 -18 -8 -40 -7 -28 2 -40 -2 -40 -12 0 -7 4 -10 10
-7 6 4 7 -1 3 -12 -6 -15 -4 -16 8 -6 12 10 18 10 29 0 10 -10 12 -9 7 5 -3
10 -1 20 5 24 7 5 8 2 3 -6 -6 -9 -4 -11 5 -5 9 5 11 4 6 -3 -5 -8 -2 -10 8
-6 10 4 16 1 16 -7 0 -7 -3 -9 -6 -6 -4 3 -16 1 -28 -5 -27 -16 -38 -16 -56
-4 -12 8 -13 8 -2 -4 15 -17 16 -30 2 -30 -5 0 -9 5 -7 11 1 6 -5 14 -13 16
-12 4 -12 3 -1 -5 8 -6 9 -12 3 -16 -6 -3 -13 0 -16 6 -4 9 -5 8 -4 -2 1 -8
-2 -23 -7 -33 -7 -17 -8 -17 -22 0 -8 10 -12 12 -8 6 13 -26 14 -54 2 -48 -7
4 -3 -1 7 -9 19 -15 12 -22 -17 -17 -5 1 -6 -3 -2 -9 4 -6 -1 -7 -11 -3 -14 5
-16 3 -11 -11 4 -9 3 -15 -2 -11 -5 3 -8 -3 -6 -12 3 -21 -14 -45 -26 -37 -5
3 -9 0 -9 -5 0 -6 -3 -10 -7 -10 -19 3 -36 -2 -30 -8 12 -12 58 -13 51 -1 -4
7 -2 8 4 4 7 -4 12 -3 12 1 0 5 6 18 14 29 12 15 14 16 12 3 -1 -10 -7 -23
-14 -31 -6 -8 -8 -19 -4 -23 4 -5 1 -5 -7 0 -10 6 -12 4 -6 -4 6 -10 2 -11
-16 -1 -24 11 -24 11 1 -9 16 -14 18 -19 8 -15 -11 4 -18 1 -18 -6 0 -6 4 -9
9 -6 5 3 14 -1 20 -8 17 -20 -4 -30 -22 -11 -13 12 -16 12 -21 0 -3 -8 3 -16
15 -20 10 -4 19 -11 19 -16 0 -5 5 -9 11 -9 5 0 8 4 5 8 -7 12 24 53 35 47 5
-4 9 -11 9 -17 0 -6 -3 -8 -7 -5 -3 4 -12 2 -20 -4 -10 -9 -11 -15 -2 -26 10
-11 15 -11 30 3 19 17 27 6 9 -12 -6 -6 -6 -15 0 -24 7 -11 10 -11 10 -2 0 7
5 10 11 6 8 -4 7 -9 -2 -14 -15 -10 -41 -1 -33 11 3 5 -4 8 -15 6 -26 -4 -40
-17 -18 -17 10 0 17 -4 17 -9 0 -5 11 -8 25 -6 17 1 29 -4 36 -18 9 -15 8 -18
-2 -12 -8 5 -10 4 -5 -4 4 -6 11 -9 16 -6 5 3 14 -3 19 -14 14 -25 14 -41 1
-21 -9 13 -10 13 -10 0 -1 -9 -6 -6 -14 9 -11 20 -14 21 -20 6 -4 -11 -12 -15
-22 -11 -9 4 -23 1 -30 -5 -7 -6 -18 -8 -23 -5 -14 9 -2 36 15 36 16 0 19 16
4 25 -6 4 -7 11 -4 17 5 7 2 8 -5 4 -7 -5 -10 -14 -7 -21 2 -7 -2 -16 -10 -19
-21 -8 -24 -8 -24 5 0 5 5 7 10 4 6 -3 10 -2 10 4 0 5 3 17 6 25 5 12 2 15
-12 10 -15 -5 -16 -4 -4 5 8 5 11 14 6 18 -4 4 -16 -2 -26 -14 -21 -27 -27
-28 -27 -8 0 8 4 12 8 10 3 -3 13 3 20 12 12 14 11 15 -7 9 -15 -5 -24 -2 -28
10 -5 14 -4 15 9 4 13 -11 15 -10 12 8 -3 24 -17 42 -17 24 0 -7 -5 -12 -11
-12 -8 0 -7 5 1 16 11 13 10 16 -8 21 -12 3 -22 10 -22 15 0 10 16 3 43 -20 9
-8 17 -11 17 -6 -1 14 -30 49 -38 46 -3 -2 -8 2 -10 10 -2 9 0 8 7 -2 6 -8 11
-10 11 -5 0 6 10 -1 21 -15 17 -22 19 -23 17 -5 -4 24 -45 55 -64 48 -8 -3
-11 -10 -7 -16 4 -6 1 -7 -6 -3 -9 6 -2 17 22 40 31 28 33 34 23 57 -6 15 -15
26 -21 25 -5 0 -11 8 -12 19 -3 18 -2 18 5 2 4 -10 12 -19 17 -19 6 0 15 -12
21 -27 10 -22 8 -30 -9 -48 -20 -22 -14 -31 9 -15 17 11 36 52 24 52 -5 0 -10
8 -10 18 0 10 -4 23 -10 30 -7 9 -7 9 2 2 7 -5 15 -10 18 -10 9 0 6 43 -3 58
-5 6 -5 12 0 13 4 0 -1 4 -12 9 -15 7 -16 9 -4 9 9 1 22 -6 29 -14 7 -8 9 -15
4 -15 -11 0 18 -20 29 -20 4 0 6 3 6 8 -5 28 2 35 16 16 8 -10 15 -14 15 -7 0
6 -7 18 -15 27 -8 8 -15 18 -15 22 0 5 5 3 12 -4 19 -19 33 -14 15 6 -13 15
-14 18 0 31 13 12 14 11 8 -10 -7 -21 -6 -22 8 -10 9 7 14 17 11 22 -3 5 0 9
6 9 7 0 9 -8 5 -21 -6 -18 -5 -19 14 -7 12 7 21 16 21 21 0 4 -4 5 -10 2 -5
-3 -7 0 -4 9 5 12 0 14 -22 10 -15 -3 -31 -7 -36 -10 -5 -3 -20 -8 -35 -10
-15 -3 -33 -13 -41 -22 -7 -9 -11 -11 -7 -5 7 15 -13 8 -95 -33 -172 -87 -331
-261 -406 -444 -83 -205 -80 -477 7 -679 12 -28 25 -48 29 -46 9 6 354 538
386 595 10 19 24 41 31 48 7 7 20 26 30 42 9 17 21 30 26 30 4 0 5 -5 1 -12
-5 -7 -3 -8 6 -3 21 13 170 13 170 1 0 -8 2 -8 8 0 9 13 124 13 134 -1 5 -6 8
-6 8 2 0 6 11 10 25 9 13 -2 22 0 20 5 -3 4 -1 10 5 14 5 3 10 0 10 -7 0 -10
13 -14 48 -13 26 1 53 -3 60 -8 7 -6 12 -6 12 0 0 10 61 10 78 0 6 -4 13 -3
17 3 4 6 12 7 24 1 13 -7 24 -6 40 5 15 11 21 12 19 3 -2 -9 11 -12 45 -11 26
0 52 4 57 7 6 3 10 3 10 -2 0 -13 333 -10 337 4 6 16 -58 140 -102 199 -50 66
-131 148 -180 182 -22 15 -42 30 -45 33 -3 3 -26 18 -51 32 -36 19 -49 23 -58
14 -9 -9 -10 -7 -5 7 5 13 4 17 -4 12 -7 -4 -12 -3 -12 2 0 5 -8 12 -17 15
-10 3 -46 14 -81 25 -34 11 -60 16 -57 12 3 -5 1 -10 -5 -12 -5 -1 9 -21 32
-43 32 -32 39 -35 34 -17 -5 14 -3 22 4 22 6 0 8 -4 5 -10 -3 -5 -1 -10 6 -10
7 0 5 -8 -6 -20 -10 -11 -13 -20 -7 -20 6 0 14 5 17 10 9 14 27 1 21 -15 -6
-16 11 -31 39 -37 15 -2 19 -10 17 -28 -4 -22 -2 -23 13 -10 20 17 48 23 39 8
-3 -5 -9 -7 -12 -4 -3 3 -14 -1 -23 -10 -17 -15 -19 -15 -25 -1 -3 9 -3 21 1
27 3 5 -2 10 -11 10 -10 0 -26 7 -36 17 -10 9 -18 11 -18 5 0 -6 5 -14 11 -17
5 -4 8 -12 6 -18 -2 -7 3 -25 11 -42 8 -16 17 -25 19 -18 2 7 -1 22 -7 33 -6
12 -10 24 -7 26 2 3 10 -9 17 -26 10 -23 10 -34 1 -43 -6 -6 -11 -16 -11 -21
0 -6 5 -5 12 2 7 7 17 12 22 12 6 0 3 -5 -6 -11 -9 -5 -15 -16 -12 -24 4 -8
10 -12 15 -9 5 3 6 -3 2 -13 -6 -17 -5 -17 14 0 23 20 33 22 33 5 0 -6 -3 -8
-7 -5 -3 4 -14 0 -24 -9 -16 -15 -19 -14 -32 12 l-14 28 -13 -24 c-11 -20 -10
-22 3 -17 11 4 14 2 10 -9 -4 -11 -9 -12 -18 -4 -9 7 -15 7 -19 1 -4 -5 3 -13
15 -16 19 -6 20 -8 3 -26 -9 -10 -12 -19 -6 -19 6 0 14 5 17 10 8 13 25 13 25
-1 0 -5 -5 -7 -10 -4 -6 3 -13 -1 -16 -9 -3 -9 -10 -14 -14 -11 -4 2 -15 -4
-25 -15 -10 -11 -13 -20 -7 -20 6 0 14 5 17 10 3 6 11 10 17 10 6 0 -1 -9 -16
-21 -21 -16 -24 -24 -16 -35 14 -16 4 -34 -18 -33 -15 1 -15 2 1 6 9 2 17 8
17 13 0 5 -8 7 -17 3 -31 -11 -34 -15 -22 -29 7 -9 8 -14 1 -14 -6 0 -13 6
-15 13 -4 9 -8 9 -15 -2 -8 -11 -11 -10 -16 6 -11 33 -43 23 -37 -11 1 -5 -4
-4 -12 2 -8 7 -18 8 -22 4 -5 -4 -5 -1 -1 6 4 7 12 10 17 7 9 -6 12 3 12 38 0
10 5 16 11 14 6 -2 10 -12 8 -21 -3 -14 0 -15 17 -4 21 13 19 34 -2 21 -7 -4
-6 0 2 10 7 9 18 14 24 10 6 -4 7 -1 2 7 -5 9 -4 11 4 6 14 -9 11 15 -4 27 -6
5 -3 7 7 4 12 -4 16 -1 13 14 -2 11 0 17 4 15 4 -3 8 0 9 7 1 17 9 48 18 71 6
15 4 18 -9 13 -9 -3 -19 -2 -22 3 -3 4 7 7 22 5 22 -2 24 -1 12 9 -16 12 -19
41 -4 41 6 0 9 -7 8 -17 -3 -23 31 -16 35 8 3 16 1 17 -7 4 -9 -13 -11 -13
-12 3 -3 30 -4 35 -11 43 -5 4 -8 2 -8 -4 0 -7 -5 -12 -12 -12 -9 0 -9 3 0 12
7 7 12 17 12 23 -1 5 -9 1 -18 -10 -20 -22 -42 -30 -42 -15 0 6 5 10 11 10 5
0 7 5 3 11 -4 8 -9 7 -16 -2 -7 -11 -8 -10 -4 4 4 13 2 16 -7 11 -7 -5 -7 -1
2 10 8 9 10 16 5 15 -5 -1 -16 -1 -24 0 -13 1 -13 3 0 10 8 6 18 7 23 4 5 -3
3 4 -4 14 -6 11 -18 20 -27 20 -11 0 -11 -3 4 -14 10 -7 13 -13 7 -13 -17 0
-36 28 -29 45 3 8 11 14 17 13 6 -2 14 3 17 11 3 9 0 11 -9 6 -11 -6 -12 -5
-1 6 16 18 16 34 -1 20 -8 -6 -18 -7 -22 -3 -5 4 -6 0 -3 -9 3 -8 -1 -26 -9
-40 -11 -18 -13 -19 -9 -4 6 20 6 20 -9 1 -13 -17 -17 -14 -14 10 1 11 -24 22
-42 19 -19 -4 -34 21 -19 30 19 12 9 21 -22 20 -18 0 -38 -3 -45 -8 -6 -4 -13
-2 -15 5 -3 7 -7 5 -11 -6 -4 -9 -3 -15 1 -12 5 3 9 -1 9 -9 0 -8 -5 -11 -10
-8 -6 4 -7 1 -2 -7 5 -9 4 -11 -4 -6 -6 4 -9 12 -6 17 6 8 -8 13 -27 10 -4 0
-5 6 -2 14 4 8 3 15 0 15 -3 0 -6 -4 -6 -9z m124 -13 c-10 -15 16 -47 35 -43
12 2 22 -5 30 -21 6 -14 15 -23 20 -19 6 3 10 -3 10 -12 0 -16 7 -63 10 -72 0
-2 13 5 29 14 15 10 24 14 20 10 -4 -4 -1 -20 7 -36 17 -33 20 -51 4 -29 -9
13 -10 12 -5 -2 3 -11 -2 -22 -14 -28 -16 -9 -20 -7 -20 6 0 10 -3 15 -6 11
-4 -3 -4 -13 0 -22 4 -13 10 -14 26 -5 14 8 20 8 20 0 0 -6 -10 -15 -22 -20
-16 -6 -18 -9 -6 -9 9 -1 18 -4 21 -8 2 -5 2 -2 1 5 -2 7 8 17 21 22 28 11 35
23 8 13 -14 -5 -15 -3 -6 7 6 7 9 18 7 25 -3 6 1 12 9 12 9 0 13 -11 13 -33
-1 -18 -3 -32 -6 -32 -26 2 -30 -3 -16 -18 9 -8 21 -12 27 -8 8 4 8 0 0 -15
-7 -11 -9 -21 -6 -21 3 0 1 -9 -5 -20 -6 -11 -16 -20 -23 -20 -8 0 -7 4 3 11
12 9 12 10 -3 5 -12 -4 -17 -2 -14 6 2 7 11 13 19 12 8 -1 15 4 15 11 0 7 -7
11 -16 8 -13 -4 -13 -3 -2 5 9 7 10 12 2 16 -10 7 -16 -6 -12 -27 1 -5 -7 -6
-18 -2 -14 4 -23 0 -31 -16 -7 -12 -8 -19 -2 -15 17 10 21 -21 5 -43 -11 -17
-18 -19 -28 -11 -20 17 -25 -2 -9 -30 12 -19 14 -20 9 -5 -4 16 0 21 15 22 18
2 19 0 5 -21 -8 -12 -12 -26 -8 -29 3 -4 1 -7 -5 -7 -6 0 -18 10 -26 22 -16
22 -16 22 -30 3 -8 -11 -20 -20 -28 -20 -7 0 -14 -10 -14 -22 -1 -12 2 -20 7
-17 4 2 5 12 2 22 -3 9 -3 14 2 10 4 -4 14 -3 22 3 15 13 18 -2 3 -17 -7 -7
-6 -11 4 -11 8 0 12 5 9 10 -3 6 -1 7 5 3 16 -9 15 7 0 22 -8 8 -8 12 -1 12
15 0 34 -25 26 -34 -4 -4 1 -4 12 0 17 5 17 4 -3 -10 -12 -10 -20 -21 -17 -26
8 -12 -21 -6 -38 8 -9 8 -18 9 -21 3 -7 -11 -46 -2 -46 11 0 5 4 7 8 4 4 -2 9
7 10 22 l1 27 -14 -25 c-8 -14 -12 -32 -9 -41 3 -12 -2 -16 -23 -15 -29 1 -46
14 -37 28 3 4 10 8 15 8 6 0 8 -4 4 -9 -3 -5 -1 -12 4 -15 20 -13 22 16 3 30
-13 9 -19 21 -16 32 5 13 4 14 -4 3 -6 -8 -8 -20 -5 -28 3 -7 0 -13 -6 -13 -6
0 -11 4 -11 8 0 5 -7 17 -16 28 -15 18 -15 18 -5 -3 15 -29 14 -33 -4 -27 -8
4 -12 11 -9 16 4 6 -3 5 -15 -1 -16 -9 -19 -16 -12 -28 5 -9 16 -18 25 -19 9
-1 14 2 10 7 -3 5 -10 7 -15 4 -5 -4 -9 -1 -9 4 0 6 7 11 15 11 8 0 15 -6 15
-12 0 -10 2 -10 9 0 6 11 10 10 15 -4 3 -9 4 -19 1 -22 -3 -3 -5 0 -5 7 0 7
-5 9 -12 4 -18 -10 -58 -12 -52 -1 3 4 0 8 -6 8 -6 0 -8 5 -5 10 3 6 2 10 -4
10 -13 0 -46 49 -38 56 9 9 48 -16 41 -27 -3 -6 -12 -3 -21 8 -13 17 -13 16
-3 -5 11 -22 12 -22 35 -5 13 10 25 22 25 27 0 5 -6 3 -14 -3 -11 -10 -17 -8
-25 6 -6 10 -11 14 -11 10 0 -4 -10 -2 -22 5 -13 7 -27 11 -31 10 -5 -1 -6 2
-3 7 7 11 46 10 46 -1 0 -4 5 -8 11 -8 8 0 8 5 -1 15 -7 8 -16 12 -21 9 -5 -3
-9 -1 -9 5 0 5 8 12 18 14 9 3 3 4 -15 3 -17 -2 -39 -8 -47 -16 -9 -7 -16 -10
-16 -6 0 3 0 9 0 14 0 4 5 7 12 7 15 0 22 22 9 30 -6 3 -11 12 -11 18 0 7 4 6
10 -3 10 -15 20 -10 24 12 3 21 22 50 32 48 5 -1 9 3 11 10 1 6 -1 6 -3 1 -3
-5 -19 -8 -37 -6 -18 2 -24 1 -14 -1 23 -7 22 -23 -2 -17 -10 3 -22 -1 -26 -7
-5 -9 -2 -10 12 -6 14 4 20 2 20 -9 0 -9 -6 -14 -14 -11 -7 3 -17 -4 -23 -15
-13 -23 -30 -17 -25 9 2 9 4 18 5 20 2 1 3 5 4 10 1 4 6 14 11 22 5 8 11 23
12 34 2 13 -1 17 -13 12 -13 -5 -14 -4 -6 7 7 8 10 17 7 20 -3 4 -2 5 2 2 3
-3 12 0 19 6 7 6 14 6 18 1 3 -6 0 -12 -8 -15 -15 -6 -11 -47 5 -47 5 0 6 8 3
18 -5 14 -3 14 10 -2 9 -11 16 -15 16 -9 0 7 -4 14 -9 18 -6 3 -9 18 -7 33 1
15 -1 35 -6 44 -6 12 -3 20 9 27 10 6 14 11 9 11 -5 0 -3 6 4 14 6 8 18 12 26
9 7 -3 17 2 20 11 3 9 10 14 14 11 5 -3 11 -1 15 5 7 12 25 4 25 -12 0 -5 -7
-7 -16 -4 -10 4 -13 2 -8 -6 5 -7 2 -9 -7 -6 -21 8 -62 -25 -66 -51 -2 -12 1
-20 6 -16 5 3 12 1 16 -5 3 -5 -1 -10 -9 -10 -9 0 -16 -5 -16 -10 0 -17 38 7
51 32 9 16 13 18 20 7 6 -9 9 -10 9 -2 0 6 -9 18 -20 26 -11 8 -17 17 -13 20
3 4 15 -1 25 -10 18 -16 18 -16 12 0 -3 9 -3 17 0 17 4 0 11 -12 16 -26 6 -14
14 -23 19 -20 5 4 12 1 14 -4 3 -6 4 -5 3 2 -2 7 -9 12 -15 11 -6 -2 -11 1
-11 6 0 5 -3 18 -7 28 -5 15 -2 15 19 -4 36 -33 42 -28 7 6 -36 36 -37 50 -4
47 14 -2 30 3 36 10 6 8 8 14 4 14 -4 0 -3 6 3 13 12 14 64 19 56 5z m196 -28
c0 -5 -2 -10 -4 -10 -3 0 -8 5 -11 10 -3 6 -1 10 4 10 6 0 11 -4 11 -10z m34
-14 c-10 -8 -21 -12 -24 -10 -5 6 21 24 34 24 6 0 1 -6 -10 -14z m-543 -10
c-6 -7 -8 -22 -4 -32 7 -18 6 -18 -11 -2 -14 15 -15 20 -4 32 16 19 34 21 19
2z m586 7 c-4 -3 0 -14 9 -24 12 -14 13 -18 2 -25 -7 -4 -10 -4 -6 1 4 4 1 14
-7 22 -18 17 -19 33 -3 33 6 0 8 -3 5 -7z m-140 -83 c2 -12 -1 -19 -6 -16 -5
4 -11 3 -14 -1 -2 -5 -3 -3 -1 3 1 6 -2 17 -6 24 -5 8 -6 18 -3 23 7 12 26 -8
30 -33z m183 36 c0 -2 -8 -10 -17 -17 -16 -13 -17 -12 -4 4 13 16 21 21 21 13z
m-700 -12 c0 -8 -19 -13 -24 -6 -3 5 1 9 9 9 8 0 15 -2 15 -3z m753 -14 c10
-12 9 -12 -3 -3 -8 6 -23 9 -33 8 -9 -2 -15 0 -12 5 7 12 33 6 48 -10z m-543
0 c10 -6 11 -10 3 -10 -7 0 -13 -8 -13 -17 -1 -17 -2 -16 -15 1 -22 29 -6 46
25 26z m-190 -10 c0 -5 -4 -10 -10 -10 -5 0 -10 5 -10 10 0 6 5 10 10 10 6 0
10 -4 10 -10z m675 -10 c3 -6 -1 -7 -9 -4 -18 7 -21 14 -7 14 6 0 13 -4 16
-10z m41 -13 c1 -9 -2 -15 -7 -11 -5 3 -7 9 -4 14 3 4 0 11 -5 13 -6 3 -5 4 1
3 7 -1 13 -10 15 -19z m114 -13 c0 -8 -19 -13 -24 -6 -3 5 1 9 9 9 8 0 15 -2
15 -3z m-915 -14 c3 -6 -1 -7 -9 -4 -18 7 -21 14 -7 14 6 0 13 -4 16 -10z
m-65 -4 c0 -2 -8 -10 -17 -17 -16 -13 -17 -12 -4 4 13 16 21 21 21 13z m101
-13 c13 -16 12 -17 -3 -4 -17 13 -22 21 -14 21 2 0 10 -8 17 -17z m-14 -18 c5
-4 3 -5 -4 -2 -6 4 -13 2 -15 -4 -2 -7 -8 -6 -16 3 -9 12 -8 14 8 13 11 -1 23
-5 27 -10z m860 -10 c0 -8 -4 -12 -9 -9 -5 3 -6 10 -3 15 9 13 12 11 12 -6z
m-943 -3 c3 -5 -1 -9 -9 -9 -8 0 -12 4 -9 9 3 4 7 8 9 8 2 0 6 -4 9 -8z m98
-5 c-12 -7 -19 -17 -15 -22 4 -4 2 -5 -6 0 -12 7 -11 10 4 22 11 7 24 13 29
13 6 -1 1 -6 -12 -13z m763 -7 c3 -5 1 -10 -4 -10 -6 0 -11 5 -11 10 0 6 2 10
4 10 3 0 8 -4 11 -10z m-825 -3 c0 -2 -10 -12 -22 -23 l-23 -19 19 23 c18 21
26 27 26 19z m845 -17 c-3 -5 -12 -10 -18 -10 -7 0 -6 4 3 10 19 12 23 12 15
0z m45 -11 c0 -5 -4 -9 -8 -9 -5 0 -9 7 -9 15 0 8 4 12 9 9 4 -3 8 -9 8 -15z
m57 -14 c0 -8 -4 -12 -9 -9 -5 3 -6 10 -3 15 9 13 12 11 12 -6z m-907 -39 c0
-6 -7 -1 -15 10 -8 10 -15 23 -15 28 0 6 7 1 15 -10 8 -10 15 -23 15 -28z
m-38 -21 c2 3 5 -2 5 -10 0 -19 0 -19 -23 7 -12 14 -13 18 -3 10 9 -6 18 -10
21 -7z m628 1 c0 -8 9 -21 20 -29 18 -13 19 -15 5 -21 -9 -3 -13 -11 -10 -17
8 -13 -24 -51 -36 -43 -5 3 -6 11 -2 17 6 10 11 30 14 62 1 6 -2 18 -6 28 -4
10 -3 17 4 17 6 0 11 -6 11 -14z m157 -18 c-3 -8 -6 -5 -6 6 -1 11 2 17 5 13
3 -3 4 -12 1 -19z m163 18 c0 -3 -4 -8 -10 -11 -5 -3 -10 -1 -10 4 0 6 5 11
10 11 6 0 10 -2 10 -4z m-120 -10 c0 -3 -4 -8 -10 -11 -5 -3 -10 -1 -10 4 0 6
5 11 10 11 6 0 10 -2 10 -4z m16 -35 c0 -16 -3 -17 -14 -9 -12 10 -7 19 13 28
1 0 1 -9 1 -19z m-824 -9 c8 -6 19 -8 23 -4 5 4 5 1 1 -6 -7 -11 -11 -11 -24
1 -10 8 -25 13 -35 12 -9 -2 -15 0 -12 5 7 11 29 7 47 -8z m797 -16 c9 -10 8
-15 -3 -19 -11 -4 -13 -1 -9 10 5 12 3 14 -7 8 -9 -5 -11 -4 -6 3 9 15 11 15
25 -2z m-739 -14 c0 -4 -9 -8 -19 -8 -11 0 -17 4 -15 8 3 4 12 8 20 8 8 0 14
-4 14 -8z m710 -22 c0 -5 -4 -10 -10 -10 -5 0 -10 5 -10 10 0 6 5 10 10 10 6
0 10 -4 10 -10z m-710 -15 c0 -1 -6 -7 -13 -13 -10 -8 -13 -6 -13 7 0 11 6 17
13 14 7 -3 13 -6 13 -8z m-219 -18 c-10 -9 -11 -8 -5 6 3 10 9 15 12 12 3 -3
0 -11 -7 -18z m278 20 c-2 -1 -13 -9 -24 -17 -19 -14 -19 -14 -6 3 7 9 18 17
24 17 6 0 8 -1 6 -3z m626 -7 c3 -6 -1 -7 -10 -4 -11 5 -14 2 -9 -12 5 -15 4
-16 -4 -4 -11 15 -7 30 8 30 5 0 12 -4 15 -10z m29 -16 c3 -8 2 -12 -4 -9 -6
3 -10 10 -10 16 0 14 7 11 14 -7z m-709 -4 c-3 -6 4 -10 17 -11 13 0 17 -3 10
-6 -18 -7 -44 5 -37 17 3 5 8 10 11 10 3 0 2 -4 -1 -10z m-19 -34 c1 -7 -4
-13 -12 -13 -9 0 -11 4 -4 12 5 7 8 15 5 18 -3 4 -2 5 2 2 4 -3 8 -11 9 -19z
m718 16 c3 -5 -1 -9 -9 -9 -8 0 -15 4 -15 9 0 4 4 8 9 8 6 0 12 -4 15 -8z
m-674 -16 c0 -2 -7 -7 -16 -10 -8 -3 -12 -2 -9 4 6 10 25 14 25 6z m515 -6 c3
-5 1 -10 -4 -10 -6 0 -11 5 -11 10 0 6 2 10 4 10 3 0 8 -4 11 -10z m125 0 c0
-5 -2 -10 -4 -10 -3 0 -8 5 -11 10 -3 6 -1 10 4 10 6 0 11 -4 11 -10z"/>
<path d="M4089 4863 c-1 -1 -2 -6 -3 -10 -1 -5 -7 -18 -14 -30 -11 -19 -10
-22 3 -17 9 4 15 3 14 -2 -5 -30 2 -37 21 -19 11 10 20 13 20 7 0 -19 18 -14
30 7 9 17 7 19 -14 15 -21 -3 -24 -1 -21 16 2 11 -1 20 -6 20 -6 0 -8 4 -5 8
3 5 -1 9 -9 9 -8 0 -16 -2 -16 -4z m27 -51 c-2 -9 -9 -18 -17 -20 -11 -3 -12
-2 -1 6 11 7 10 10 -3 16 -13 5 -15 9 -6 20 6 7 10 15 8 17 -1 2 3 -2 10 -9 6
-7 10 -21 9 -30z"/>
<path d="M4038 4803 c12 -22 30 -38 37 -31 2 2 -8 14 -22 28 -24 23 -25 23
-15 3z"/>
<path d="M4163 4783 c-26 -26 -19 -31 9 -6 20 18 25 4 6 -15 -7 -7 -8 -12 -4
-12 5 0 -2 -9 -15 -21 -23 -20 -22 -20 9 1 18 12 30 25 27 30 -3 5 -1 10 4 12
6 2 4 10 -2 18 -10 13 -15 12 -34 -7z"/>
<path d="M4115 4760 c3 -5 8 -10 11 -10 2 0 4 5 4 10 0 6 -5 10 -11 10 -5 0
-7 -4 -4 -10z"/>
<path d="M4081 4753 c-1 -17 16 -25 25 -12 4 7 3 9 -4 5 -5 -3 -13 0 -15 6 -4
9 -6 10 -6 1z"/>
<path d="M4125 4737 c-15 -12 -16 -15 -4 -22 8 -5 11 -5 7 0 -4 4 0 14 10 21
23 18 11 18 -13 1z"/>
<path d="M4199 4734 c-11 -14 -11 -18 4 -29 9 -6 14 -15 10 -18 -3 -4 2 -9 11
-13 9 -3 13 -10 10 -15 -3 -5 2 -6 12 -2 14 5 13 8 -7 19 -13 7 -19 14 -14 14
6 0 1 7 -10 16 -17 12 -18 16 -5 24 8 5 12 12 9 15 -4 3 -12 -2 -20 -11z"/>
<path d="M4073 4705 c0 -8 4 -12 9 -9 5 3 6 10 3 15 -9 13 -12 11 -12 -6z"/>
<path d="M4022 4684 c10 -10 20 -16 22 -13 3 3 -5 11 -17 18 -21 13 -21 12 -5
-5z"/>
<path d="M4261 4691 c-10 -6 -9 -10 3 -14 8 -3 18 -2 21 3 8 13 -9 20 -24 11z"/>
<path d="M3932 4677 c-12 -6 -22 -14 -22 -19 0 -5 10 -2 22 6 15 11 26 12 39
5 14 -7 17 -6 13 4 -6 16 -22 17 -52 4z"/>
<path d="M4181 4674 c0 -11 3 -14 6 -6 3 7 2 16 -1 19 -3 4 -6 -2 -5 -13z"/>
<path d="M3929 4643 c-13 -16 -12 -17 4 -4 9 7 17 15 17 17 0 8 -8 3 -21 -13z"/>
<path d="M4196 4633 c-6 -14 -5 -15 5 -6 7 7 10 15 7 18 -3 3 -9 -2 -12 -12z"/>
<path d="M4222 4600 c0 -14 2 -19 5 -12 2 6 2 18 0 25 -3 6 -5 1 -5 -13z"/>
<path d="M3940 4559 c0 -5 5 -7 10 -4 6 3 10 8 10 11 0 2 -4 4 -10 4 -5 0 -10
-5 -10 -11z"/>
<path d="M4216 4553 c-6 -14 -5 -15 5 -6 7 7 10 15 7 18 -3 3 -9 -2 -12 -12z"/>
<path d="M4250 4560 c-8 -5 -10 -10 -5 -10 6 0 17 5 25 10 8 5 11 10 5 10 -5
0 -17 -5 -25 -10z"/>
<path d="M3902 4530 c-7 -11 -10 -20 -6 -20 7 0 34 27 34 34 0 13 -16 5 -28
-14z"/>
<path d="M3996 4533 c-6 -14 -5 -15 5 -6 7 7 10 15 7 18 -3 3 -9 -2 -12 -12z"/>
<path d="M3936 4525 c-3 -8 -1 -15 4 -15 6 0 10 7 10 15 0 8 -2 15 -4 15 -2 0
-6 -7 -10 -15z"/>
<path d="M4195 4522 c3 -3 1 -10 -5 -16 -6 -8 -3 -12 10 -13 11 -1 22 2 25 8
4 5 -2 6 -12 2 -15 -6 -16 -4 -6 8 10 13 10 16 -2 16 -8 0 -13 -3 -10 -5z"/>
<path d="M3986 4502 c-2 -4 4 -8 14 -8 10 0 16 4 14 8 -3 4 -9 8 -14 8 -5 0
-11 -4 -14 -8z"/>
<path d="M4050 4499 c0 -5 5 -7 10 -4 6 3 10 8 10 11 0 2 -4 4 -10 4 -5 0 -10
-5 -10 -11z"/>
<path d="M4235 4491 c-3 -5 0 -13 6 -17 7 -4 9 -3 5 4 -3 5 0 13 6 15 9 4 10
6 1 6 -6 1 -14 -3 -18 -8z"/>
<path d="M3950 4480 c0 -5 5 -10 10 -10 6 0 10 5 10 10 0 6 -4 10 -10 10 -5 0
-10 -4 -10 -10z"/>
<path d="M3961 4444 c0 -11 3 -14 6 -6 3 7 2 16 -1 19 -3 4 -6 -2 -5 -13z"/>
<path d="M3991 4453 c-1 -17 19 -27 31 -15 6 6 6 12 -3 17 -8 5 -10 4 -5 -3 4
-7 3 -12 -3 -12 -5 0 -12 6 -14 13 -4 9 -6 9 -6 0z"/>
<path d="M4139 4458 c-6 -22 -5 -39 3 -45 6 -3 8 -1 4 5 -3 6 3 12 16 15 l23
4 -23 2 c-13 0 -20 6 -17 11 3 6 4 10 1 10 -3 0 -6 -1 -7 -2z"/>
<path d="M4050 4439 c0 -5 5 -7 10 -4 6 3 10 8 10 11 0 2 -4 4 -10 4 -5 0 -10
-5 -10 -11z"/>
<path d="M4070 4418 c0 -6 7 -7 16 -4 12 5 14 1 9 -17 -5 -20 -5 -20 5 -4 7
10 9 21 6 25 -11 10 -36 11 -36 0z"/>
<path d="M4205 4360 c-4 -6 -11 -7 -17 -4 -7 4 -8 2 -4 -5 6 -9 11 -9 22 0 14
11 18 19 10 19 -3 0 -8 -5 -11 -10z"/>
<path d="M4286 4474 c-5 -14 -4 -15 9 -4 17 14 19 20 6 20 -5 0 -12 -7 -15
-16z"/>
<path d="M4279 4433 c-13 -16 -12 -17 4 -4 16 13 21 21 13 21 -2 0 -10 -8 -17
-17z"/>
<path d="M4030 4880 c0 -5 5 -10 10 -10 6 0 10 5 10 10 0 6 -4 10 -10 10 -5 0
-10 -4 -10 -10z"/>
<path d="M4162 4870 c-13 -21 -11 -23 31 -23 15 0 21 -9 18 -30 -1 -4 7 -2 18
4 10 7 18 19 17 28 0 9 5 15 12 14 6 -2 12 2 12 7 0 6 -12 8 -27 6 -15 -3 -33
0 -40 6 -9 7 -13 7 -13 0 0 -6 5 -12 12 -14 9 -3 9 -6 0 -12 -7 -4 -12 -2 -12
4 0 6 -4 8 -10 5 -6 -3 -7 1 -4 9 9 22 1 20 -14 -4z m66 -35 c-3 -3 -9 2 -12
12 -6 14 -5 15 5 6 7 -7 10 -15 7 -18z"/>
<path d="M3956 4832 c-3 -5 1 -9 9 -9 8 0 12 4 9 9 -3 4 -7 8 -9 8 -2 0 -6 -4
-9 -8z"/>
<path d="M4285 4810 c-4 -6 -12 -7 -18 -4 -7 4 -8 3 -4 -2 5 -5 13 -10 18 -10
5 -1 14 -2 19 -3 6 0 9 -6 8 -13 -2 -6 10 -13 25 -14 l28 -3 -28 30 c-30 31
-38 35 -48 19z"/>
<path d="M3874 4793 c3 -16 16 -22 16 -8 0 3 0 10 0 15 0 6 -4 10 -9 10 -5 0
-8 -8 -7 -17z"/>
<path d="M3833 4753 c4 -6 3 -14 -3 -18 -6 -4 -8 -11 -5 -16 4 -5 1 -9 -5 -9
-6 0 -8 -4 -5 -10 3 -5 0 -7 -8 -4 -23 9 -32 -17 -12 -33 11 -7 14 -13 8 -13
-6 0 -13 -6 -16 -14 -4 -9 0 -13 11 -12 10 2 17 13 18 31 1 30 30 59 48 48 6
-4 6 0 -1 8 -8 10 -9 19 -3 27 6 7 7 10 4 7 -4 -3 -14 1 -22 8 -11 8 -14 8 -9
0z m14 -28 c0 -8 -4 -12 -9 -9 -5 3 -6 10 -3 15 9 13 12 11 12 -6z m-37 -45
c0 -5 -5 -10 -11 -10 -5 0 -7 5 -4 10 3 6 8 10 11 10 2 0 4 -4 4 -10z"/>
<path d="M4321 4751 c-10 -6 -9 -10 4 -14 11 -5 14 -3 9 6 -4 6 -3 8 1 4 5 -4
10 -15 11 -24 2 -12 0 -13 -9 -4 -17 17 -31 13 -17 -4 17 -20 27 -19 40 5 8
15 7 21 -8 29 -10 5 -24 6 -31 2z"/>
<path d="M4380 4741 c-8 -15 -8 -27 0 -42 7 -11 14 -18 17 -15 3 3 0 12 -7 21
-10 12 -10 18 0 30 7 9 10 18 7 21 -3 3 -10 -4 -17 -15z"/>
<path d="M3796 4731 c-4 -7 -5 -15 -2 -18 9 -9 19 4 14 18 -4 11 -6 11 -12 0z"/>
<path d="M4405 4610 c-4 -6 -11 -7 -17 -4 -7 4 -8 2 -4 -5 4 -6 3 -18 -4 -25
-6 -8 -13 -25 -16 -37 -8 -39 -12 -54 -14 -56 -2 -2 -4 -7 -5 -13 -1 -5 -4
-12 -5 -15 -1 -3 -3 -8 -4 -12 -3 -19 -18 -33 -29 -27 -9 5 -9 4 0 -6 13 -14
6 -43 -8 -34 -5 3 -6 -2 -2 -11 4 -12 8 -13 13 -5 4 6 11 11 16 10 5 -1 10 4
13 11 2 7 -1 9 -9 4 -9 -6 -11 -4 -5 4 5 9 10 10 18 2 16 -16 23 -14 24 9 1
11 -3 20 -8 20 -6 0 -7 -4 -4 -10 3 -6 -1 -7 -10 -4 -13 5 -10 10 13 24 37 23
43 32 31 50 -5 8 -9 12 -10 8 -1 -5 -3 -12 -4 -18 -1 -5 -3 -15 -4 -21 0 -5
-6 -7 -12 -3 -8 4 -7 9 2 15 12 7 11 9 0 9 -11 0 -10 4 4 13 11 9 15 19 11 28
-4 8 0 5 8 -5 9 -11 19 -16 23 -12 4 4 1 11 -7 16 -28 17 -16 85 14 74 7 -3
12 4 12 16 0 21 -11 27 -21 10z"/>
<path d="M4396 4571 c-4 -7 -5 -15 -2 -18 9 -9 19 4 14 18 -4 11 -6 11 -12 0z"/>
<path d="M3782 4474 c17 -17 72 -29 63 -14 -3 5 -12 7 -19 4 -7 -3 -19 2 -26
11 -7 8 -17 15 -23 15 -6 0 -4 -7 5 -16z"/>
<path d="M3851 4393 c11 -12 9 -18 -11 -34 -14 -10 -20 -19 -13 -19 6 0 15 5
18 10 4 6 16 8 28 5 17 -5 19 -4 7 4 -13 9 -13 11 0 11 9 0 16 10 17 21 2 21
1 21 -13 3 -8 -11 -13 -13 -12 -5 2 7 -5 15 -15 16 -15 3 -16 1 -6 -12z"/>
<path d="M4335 4192 c-2 -2 -111 -4 -242 -3 -240 0 -278 -3 -268 -20 4 -5 1
-9 -5 -9 -7 0 -9 -7 -6 -16 3 -8 2 -12 -4 -9 -5 3 -14 -5 -21 -17 -7 -13 -15
-25 -18 -28 -7 -5 -275 -413 -350 -533 l-43 -67 33 -45 c19 -24 36 -44 39 -45
4 0 96 139 265 400 l54 85 178 2 c98 0 371 2 606 2 l428 1 -2 119 c-1 66 -4
135 -8 153 l-7 33 -313 0 c-172 0 -314 -1 -316 -3z m-241 -52 c10 -13 9 -13
-6 -1 -10 7 -18 21 -17 30 0 13 1 14 6 1 3 -8 11 -22 17 -30z m59 27 c7 3 10
4 7 0 -3 -3 -8 -5 -11 -4 -3 1 -14 -5 -24 -13 -17 -14 -17 -14 -4 8 8 12 15
18 17 12 2 -6 9 -7 15 -3z m75 -12 c-3 -3 -9 2 -12 12 -6 14 -5 15 5 6 7 -7
10 -15 7 -18z m-302 -11 c1 -9 0 -13 -4 -10 -3 4 -7 14 -8 22 -1 9 0 13 4 10
3 -4 7 -14 8 -22z m33 12 c9 -11 9 -16 -1 -22 -7 -4 -10 -4 -6 1 4 4 3 14 -3
22 -6 7 -9 13 -6 13 2 0 10 -6 16 -14z m371 8 c0 -8 -19 -13 -24 -6 -3 5 1 9
9 9 8 0 15 -2 15 -3z m-60 -18 c0 -3 -4 -8 -10 -11 -5 -3 -10 -1 -10 4 0 6 5
11 10 11 6 0 10 -2 10 -4z m34 -24 c3 -5 -1 -9 -9 -9 -8 0 -12 4 -9 9 3 4 7 8
9 8 2 0 6 -4 9 -8z m-74 -22 c0 -5 -5 -10 -11 -10 -5 0 -7 5 -4 10 3 6 8 10
11 10 2 0 4 -4 4 -10z"/>
<path d="M3712 3575 c-68 -104 -132 -202 -143 -217 -25 -35 -24 -50 4 -67 12
-8 32 -20 43 -28 21 -13 25 -9 89 92 l68 105 513 0 513 0 35 53 c39 58 100
185 111 230 l8 28 -559 -3 -558 -3 -124 -190z"/>
<path d="M2237 3383 c-4 -3 -43 -7 -87 -8 -44 -1 -83 -5 -87 -9 -4 -4 6 -18
22 -31 37 -30 24 -33 -16 -4 -16 11 -27 24 -24 29 6 10 -15 8 -32 -3 -7 -5
-13 -5 -13 0 0 4 -5 0 -11 -10 -9 -15 -13 -16 -25 -6 -11 9 -18 9 -26 1 -6 -6
-17 -8 -24 -5 -8 3 -14 -1 -14 -11 0 -17 -20 -18 -32 -1 -5 6 -8 5 -8 -2 0 -7
-7 -10 -15 -7 -8 4 -15 2 -15 -3 0 -5 -6 -10 -12 -11 -28 -2 -47 -9 -62 -21
-8 -7 -21 -9 -27 -5 -8 5 -9 3 -4 -6 6 -10 4 -12 -9 -7 -11 5 -15 3 -10 -5 5
-8 2 -9 -10 -5 -10 4 -19 1 -22 -8 -3 -8 -13 -11 -22 -8 -14 5 -15 4 -4 -8 11
-12 15 -11 28 5 8 11 14 15 14 10 0 -6 -5 -15 -11 -21 -9 -9 -7 -12 10 -10 13
1 20 6 17 14 -3 7 4 17 14 23 11 6 20 8 20 5 0 -3 10 -1 21 6 17 9 20 8 14 -2
-6 -8 -4 -10 5 -4 8 5 11 4 6 -3 -4 -6 -14 -9 -24 -6 -13 5 -14 4 -4 -4 11 -7
11 -10 -3 -15 -9 -4 -14 -3 -11 1 2 4 -5 9 -17 9 -12 1 -17 -1 -12 -5 6 -4 11
-16 13 -27 2 -16 1 -17 -7 -5 -6 8 -11 11 -11 6 0 -5 8 -19 18 -30 17 -21 17
-21 -5 -3 -16 14 -23 15 -29 6 -4 -7 -3 -10 4 -5 6 3 9 -1 7 -11 -1 -10 2 -24
8 -31 6 -7 6 -12 1 -11 -5 1 -12 0 -16 -1 -13 -4 -27 -7 -39 -9 -5 0 -7 -6 -4
-11 4 -7 12 -7 25 0 13 7 21 7 25 0 5 -9 -1 -12 -21 -9 -4 0 -11 -5 -15 -13
-7 -10 -9 -10 -9 0 0 7 -5 10 -11 7 -6 -5 -4 -12 8 -22 17 -14 17 -14 -1 -8
-19 6 -19 5 -2 -14 10 -11 23 -18 27 -15 5 3 9 0 9 -6 0 -7 -7 -10 -17 -6 -15
5 -15 4 1 -9 14 -11 16 -15 5 -15 -12 0 -12 -2 1 -10 11 -7 11 -10 2 -10 -7 0
-11 -4 -8 -9 3 -5 0 -14 -7 -19 -10 -8 -13 -6 -14 9 -1 10 3 19 9 19 16 0 1
13 -17 16 -18 3 -18 -1 -4 -28 9 -16 8 -19 -2 -13 -8 5 -10 4 -5 -3 4 -7 2
-10 -7 -6 -16 6 -44 -23 -33 -33 4 -4 11 -1 16 7 10 16 40 23 40 9 0 -5 -5 -9
-11 -9 -5 0 -7 -5 -3 -11 3 -6 9 -7 13 -3 10 15 34 16 42 2 4 -7 2 -19 -4 -27
-10 -12 -9 -13 3 -7 8 4 6 0 -5 -10 -13 -11 -15 -15 -4 -11 11 3 15 -2 15 -18
0 -19 -3 -22 -17 -14 -28 15 -36 10 -9 -6 34 -19 43 -18 36 3 -3 9 3 5 15 -11
11 -15 25 -25 30 -22 5 4 6 -2 2 -11 -5 -14 -3 -16 13 -11 14 5 12 2 -6 -12
-21 -16 -23 -22 -12 -33 11 -11 12 -10 7 5 -4 9 -3 17 2 17 5 0 9 -11 9 -24 0
-17 -4 -22 -15 -18 -13 4 -13 2 -4 -8 6 -7 19 -10 27 -7 17 7 18 27 2 38 -4 4
-3 10 3 13 6 4 11 1 11 -6 0 -10 2 -10 8 -1 6 9 11 6 21 -8 7 -12 8 -19 3 -15
-5 3 -9 -1 -9 -9 0 -8 5 -11 10 -8 6 4 7 1 2 -8 -7 -11 -6 -12 6 -3 8 6 24 10
37 8 20 -4 22 -1 17 18 -7 23 -7 23 8 3 8 -11 13 -23 10 -27 -2 -5 3 -11 12
-14 13 -5 14 -8 3 -15 -9 -6 -6 -8 10 -6 12 0 22 5 22 10 0 4 5 5 11 1 8 -4 7
-9 -2 -16 -11 -7 -11 -8 1 -6 8 1 30 -6 49 -16 18 -10 30 -13 27 -7 -4 6 -2
11 3 11 6 0 11 -7 11 -15 0 -8 -6 -15 -12 -15 -9 0 -8 -4 2 -10 13 -9 13 -11
1 -19 -13 -8 -13 -12 0 -27 12 -15 12 -17 0 -9 -11 6 -13 4 -8 -11 7 -18 6
-18 -9 1 -8 11 -20 19 -25 18 -5 -2 -10 2 -10 7 -1 6 -3 15 -4 20 -1 6 -3 13
-4 18 -1 4 -6 0 -11 -8 -6 -10 -4 -22 6 -38 9 -13 13 -26 10 -29 -3 -3 -11 6
-17 20 -7 15 -16 24 -21 21 -4 -3 -6 -10 -3 -15 4 -5 3 -14 0 -19 -8 -13 -89
44 -105 75 -7 14 -18 21 -24 18 -6 -4 -6 0 1 8 11 13 8 16 -16 16 -22 0 -28
-4 -24 -16 4 -14 3 -14 -5 -1 -8 10 -7 18 1 28 7 9 13 10 15 3 7 -20 17 -12
18 14 2 22 0 24 -15 13 -9 -6 -27 -23 -40 -36 -20 -20 -22 -28 -13 -43 15 -23
15 -29 2 -29 -5 0 -9 6 -7 13 1 6 -3 11 -10 10 -18 -4 -5 27 25 60 28 29 20
37 -10 10 -25 -23 -47 -3 -22 21 9 9 14 19 11 22 -3 3 -14 -3 -25 -14 -17 -17
-21 -18 -26 -5 -8 21 -8 22 12 22 44 1 53 5 47 18 -3 8 -5 17 -5 19 0 2 -4 4
-10 4 -5 0 -9 -6 -7 -12 1 -7 -7 -13 -18 -13 -11 0 -25 -3 -31 -7 -7 -5 -14
-2 -17 7 -4 10 -1 12 11 8 9 -3 14 -3 10 2 -4 4 -3 16 2 26 6 11 6 20 1 24 -5
3 -12 -4 -16 -15 -4 -11 -11 -18 -16 -15 -5 4 -10 1 -10 -4 -1 -6 -2 -17 -3
-23 0 -7 -10 -13 -21 -14 -16 -1 -16 0 -2 3 9 3 15 8 12 13 -3 5 4 19 15 30
24 24 19 40 -5 20 -13 -10 -18 -11 -28 -1 -9 10 -9 15 3 24 8 7 17 21 18 31 3
17 2 18 -13 6 -13 -11 -18 -11 -28 0 -10 10 -9 12 5 7 9 -3 23 2 34 14 9 10
12 19 6 19 -6 0 -14 -5 -17 -10 -9 -14 -24 -3 -35 26 -12 30 -27 31 -26 3 1
-16 -6 -23 -24 -25 -18 -3 -21 -2 -10 5 8 5 18 7 23 4 5 -3 7 5 5 18 -2 17 2
24 14 24 9 0 20 4 24 8 4 4 0 7 -8 7 -9 0 -21 7 -28 15 -8 9 -8 15 -2 15 6 0
12 -4 14 -9 6 -17 40 -16 52 2 9 14 8 20 -4 27 -21 14 -27 12 -27 -5 0 -10 6
-14 16 -10 12 5 13 3 4 -6 -12 -12 -37 -3 -28 11 3 5 -4 15 -16 24 -27 19 -16
36 21 32 22 -2 33 3 49 25 12 16 17 29 12 29 -5 0 -17 -10 -25 -22 -9 -12 -16
-18 -16 -12 0 5 5 15 11 21 9 9 5 11 -17 8 -16 -2 -32 -4 -36 -4 -4 -1 -5 -9
-2 -18 5 -15 4 -16 -5 -3 -13 18 12 42 35 33 14 -5 20 12 7 20 -5 2 -3 2 4 1
7 -2 15 1 18 6 4 6 3 10 -2 11 -4 0 -18 2 -31 3 -13 2 -25 -1 -28 -6 -3 -4 0
-8 7 -8 7 0 10 -3 6 -6 -3 -3 -11 -3 -16 1 -7 4 0 22 21 51 24 34 36 43 51 38
13 -4 17 -2 13 5 -4 6 -2 9 7 5 8 -3 14 1 14 10 0 21 -26 29 -33 11 -4 -8 -9
-13 -13 -11 -3 2 -15 -2 -26 -10 -10 -8 -15 -14 -9 -15 5 -1 -2 -4 -16 -8 -19
-6 -24 -13 -23 -32 2 -21 2 -22 -8 -6 -10 17 -12 18 -30 1 -10 -9 -16 -21 -13
-25 3 -5 -1 -6 -9 -3 -8 3 -20 -2 -27 -11 -7 -8 -16 -15 -20 -15 -4 0 -40 33
-81 73 -81 79 -191 153 -211 141 -7 -4 -10 -4 -6 1 7 8 -65 46 -80 43 -7 -1
-22 4 -68 22 -14 5 -26 4 -34 -3 -10 -9 -11 -9 -6 1 8 13 -13 15 -162 16 -46
1 -86 -2 -88 -6 -3 -4 -11 -5 -19 -1 -8 3 -15 0 -15 -6 0 -6 -8 -8 -17 -4 -19
7 -18 5 11 -17 16 -12 18 -12 11 -1 -6 10 -4 12 5 6 9 -6 11 -4 5 6 -8 12 -6
12 8 0 9 -7 14 -17 11 -22 -8 -14 -16 -11 -9 4 4 6 0 5 -7 -4 -11 -14 -15 -14
-26 -2 -7 7 -17 11 -23 8 -5 -4 -9 2 -9 12 0 10 -3 14 -8 8 -4 -6 -17 -10 -29
-9 -12 1 -24 -5 -27 -12 -3 -8 -12 -11 -21 -8 -8 4 -15 1 -15 -6 0 -7 -7 -10
-15 -6 -8 3 -14 2 -14 -2 3 -19 -2 -26 -10 -13 -8 12 -14 11 -38 -5 -15 -10
-32 -19 -36 -19 -4 0 -12 -7 -17 -15 -5 -8 -10 -12 -10 -7 0 4 -11 0 -25 -9
-14 -9 -22 -21 -18 -27 4 -6 0 -8 -9 -4 -18 6 -52 -25 -41 -37 5 -4 3 -6 -3
-4 -6 2 -21 -8 -33 -22 -13 -14 -19 -19 -15 -11 5 10 3 12 -5 7 -7 -5 -10 -14
-7 -22 3 -8 2 -13 -2 -11 -16 5 -100 -98 -89 -109 3 -3 13 -5 23 -5 11 1 27 1
37 1 9 0 34 0 55 0 123 1 211 4 208 8 -4 3 -13 5 -46 11 -3 1 2 5 9 10 9 6 22
6 34 -1 10 -5 21 -7 24 -5 2 3 -5 8 -18 12 -17 6 -19 9 -8 16 12 8 12 10 0 18
-7 5 -10 14 -7 20 9 14 27 14 24 0 -2 -6 4 -14 12 -16 13 -4 13 -3 0 6 -8 6
-11 11 -6 11 6 0 5 5 -2 12 -8 8 -15 8 -26 -1 -12 -10 -15 -9 -13 8 1 12 6 20
12 17 6 -2 12 5 12 17 1 11 8 24 15 29 9 7 7 8 -7 4 -32 -9 -45 5 -31 33 l13
24 16 -23 c13 -18 18 -20 34 -10 14 9 15 10 1 6 -9 -2 -22 2 -30 11 -11 14
-11 15 2 11 24 -9 53 11 40 27 -8 10 -5 12 17 11 16 -1 34 -5 41 -9 17 -12 32
1 25 21 -5 14 -3 15 8 5 7 -7 18 -13 23 -13 6 0 3 5 -6 11 -22 12 -23 29 -3
29 8 0 15 5 15 11 0 6 6 4 14 -4 8 -8 27 -13 41 -11 21 2 25 -1 20 -14 -3 -9
-3 -13 1 -9 4 4 13 2 21 -4 10 -9 13 -8 13 1 0 22 14 1 17 -25 2 -14 -1 -25
-7 -25 -5 0 -10 -5 -10 -10 0 -6 11 -3 24 5 16 11 26 13 31 6 3 -6 1 -11 -4
-11 -6 0 -11 -5 -11 -11 0 -8 5 -7 15 1 9 7 18 10 21 7 3 -3 -3 -11 -15 -18
-16 -11 -18 -16 -8 -28 10 -12 9 -14 -5 -8 -10 3 -20 1 -24 -5 -4 -6 -3 -8 3
-5 5 3 28 -7 52 -22 30 -20 38 -30 27 -34 -8 -3 -17 1 -20 10 -5 13 -9 13 -23
2 -15 -12 -16 -12 -9 6 5 15 4 17 -5 8 -16 -16 -2 -38 16 -23 9 8 14 6 19 -6
9 -22 8 -24 -8 -18 -11 4 -14 -1 -13 -18 2 -27 27 -59 40 -51 5 3 13 -1 18 -8
5 -8 9 -9 9 -4 0 9 64 13 80 6 3 -2 15 -4 28 -5 12 -2 37 -17 55 -35 19 -17
37 -28 41 -24 4 5 6 3 4 -3 -3 -11 21 -36 148 -149 43 -39 83 -75 90 -82 6 -7
14 -9 18 -6 3 4 6 -1 6 -10 0 -10 3 -17 8 -17 4 0 28 -19 53 -43 107 -98 183
-162 190 -160 5 2 8 -1 6 -5 -1 -5 13 -24 32 -43 l34 -34 151 0 c137 0 151 2
150 17 -1 10 3 15 8 12 5 -3 7 -12 4 -20 -6 -16 28 -16 53 0 10 6 12 5 7 -3
-6 -9 0 -11 21 -7 15 2 29 5 31 5 1 1 -2 9 -7 19 -7 14 -6 18 9 18 10 0 16 -5
12 -11 -22 -36 15 -46 54 -15 18 14 18 14 5 -2 -12 -16 -11 -18 7 -18 16 0 20
5 17 21 -3 12 -1 18 3 15 4 -4 7 -13 7 -19 0 -7 13 -13 29 -15 21 -3 26 0 20
10 -6 10 -5 11 7 1 8 -6 42 -11 77 -11 34 0 66 -3 70 -6 4 -4 0 -6 -8 -4 -11
2 -16 -9 -18 -45 -2 -27 1 -54 7 -61 7 -9 -43 -11 -224 -11 -136 0 -231 -4
-227 -9 3 -5 -1 -5 -9 0 -8 4 -75 9 -149 10 -74 1 -138 2 -141 3 -10 2 -136
113 -285 251 -32 31 -124 114 -204 185 -80 72 -146 133 -148 138 -2 4 -10 7
-17 7 -7 0 -16 7 -19 16 -4 11 -16 15 -39 13 -18 -2 -38 0 -45 5 -6 4 -12 3
-12 -1 0 -10 -151 -10 -167 0 -16 10 -23 -4 -12 -24 5 -11 6 -19 2 -19 -4 0 0
-5 11 -11 14 -9 22 -7 35 6 15 16 15 17 -5 11 -14 -4 -24 -2 -27 7 -3 8 1 14
9 14 7 0 11 -5 7 -10 -3 -5 5 -4 17 3 15 8 20 8 16 1 -10 -15 7 -14 23 2 11
10 13 10 7 0 -9 -16 6 -17 21 -2 7 7 13 8 17 0 8 -12 -21 -61 -36 -61 -5 0 0
10 12 22 25 28 26 42 1 26 -11 -7 -17 -17 -13 -23 3 -5 -2 -4 -12 4 -15 13
-20 11 -43 -13 -30 -32 -59 -31 -55 3 2 20 0 22 -13 11 -8 -7 -12 -17 -8 -24
3 -6 0 -6 -8 2 -7 6 -19 12 -27 12 -9 0 -6 -7 9 -20 13 -10 19 -19 12 -20 -6
0 -13 3 -15 8 -6 13 -68 53 -68 43 0 -5 10 -17 22 -25 16 -12 18 -16 7 -16 -9
0 -22 11 -29 25 -7 14 -20 25 -28 25 -12 0 -12 -4 3 -20 12 -14 15 -24 9 -30
-12 -12 -76 44 -66 56 4 4 -1 4 -11 1 -10 -4 -16 -3 -13 2 3 5 -1 12 -10 15
-8 3 -13 9 -11 13 8 12 -67 10 -75 -2 -5 -6 -8 -5 -8 2 0 9 -7 10 -26 3 -14
-6 -23 -7 -21 -2 3 4 -47 7 -110 7 -95 0 -116 -3 -124 -16 -19 -36 -40 -139
-44 -221 l-4 -88 492 0 492 -1 61 -57 c52 -48 169 -154 234 -212 64 -56 194
-175 249 -226 36 -34 82 -75 101 -91 l35 -30 330 -1 c182 0 338 -1 348 -1 14
-1 17 -11 17 -61 l0 -60 -372 0 -373 0 -55 53 c-31 28 -96 88 -145 132 -49 44
-110 99 -135 122 -25 23 -55 50 -68 61 -13 11 -62 56 -110 100 -48 44 -105 96
-127 116 l-40 36 -457 0 c-252 0 -458 -1 -458 -3 0 -2 11 -36 25 -76 27 -82
81 -183 117 -221 l23 -25 395 0 395 1 30 -24 c17 -14 57 -50 91 -81 33 -31 98
-90 144 -131 46 -41 91 -82 100 -90 9 -8 61 -55 116 -105 54 -49 101 -92 104
-95 3 -3 26 -24 52 -47 l48 -43 350 0 350 0 0 -60 0 -60 -372 0 -373 0 -36 33
c-19 17 -78 70 -130 117 -51 47 -116 105 -143 130 -58 53 -48 44 -161 145 -49
44 -94 85 -100 91 -5 7 -33 31 -60 56 l-50 43 -308 0 c-169 0 -308 -3 -310 -7
-3 -10 70 -57 138 -89 152 -72 359 -91 519 -50 44 12 80 20 81 19 1 -2 12 -33
24 -70 49 -148 161 -332 272 -448 175 -183 417 -310 672 -354 93 -17 282 -19
372 -5 262 41 498 161 685 349 177 177 286 385 334 636 19 100 19 313 0 418
-13 76 -51 206 -60 206 -2 0 -42 -60 -90 -132 -132 -203 -246 -378 -350 -537
-52 -79 -117 -179 -144 -222 l-51 -79 -327 0 -327 0 0 60 0 60 295 0 295 0
125 193 c174 268 291 447 403 619 130 199 122 176 83 237 l-33 53 -104 -162
c-253 -390 -402 -616 -413 -625 -8 -6 -134 -10 -332 -10 l-319 0 -2 62 c-2 35
1 62 5 62 4 -1 138 -1 297 0 l291 1 19 33 c24 42 216 336 427 655 26 41 48 79
48 85 -1 21 -58 80 -72 75 -7 -3 -62 -82 -121 -174 -223 -347 -238 -369 -255
-369 -9 0 -22 -3 -28 -7 -6 -4 -14 -5 -18 -1 -3 4 -50 6 -104 5 -241 -5 -483
-4 -489 1 -12 13 -8 109 5 120 17 14 112 17 130 4 8 -6 12 -6 12 2 0 6 -6 11
-12 11 -10 0 -10 2 -1 8 7 4 9 13 4 21 -6 9 -10 6 -14 -10 -4 -13 -9 -20 -13
-16 -10 10 -13 58 -3 52 5 -4 6 2 3 12 -3 10 -2 14 3 8 11 -13 33 -17 33 -6 0
8 -37 24 -52 22 -5 -1 -8 7 -8 16 0 15 -2 16 -10 3 -5 -8 -7 -24 -4 -35 6 -19
5 -19 -12 -3 -14 14 -15 21 -6 30 15 15 16 28 1 28 -5 0 -8 -4 -4 -9 3 -5 1
-12 -5 -16 -5 -3 -10 1 -10 9 0 20 -19 31 -32 18 -6 -6 -6 -16 0 -28 10 -21 5
-47 -8 -39 -5 3 -7 12 -4 19 3 8 0 17 -5 21 -6 3 -9 11 -6 16 4 5 1 9 -4 9
-14 0 -14 -17 -1 -25 6 -3 10 -12 10 -18 -1 -7 -12 1 -25 18 -13 16 -27 26
-31 22 -4 -4 -2 -7 4 -7 7 0 12 -7 12 -15 0 -8 -5 -15 -11 -15 -5 0 -7 4 -4
10 4 6 -1 7 -11 3 -11 -4 -15 -2 -11 4 4 6 -3 22 -14 37 l-20 26 20 0 c12 0
20 -5 19 -11 -2 -6 4 -14 12 -16 12 -4 12 -3 2 5 -8 5 -13 13 -13 18 1 5 -8 9
-19 9 -11 0 -20 -4 -19 -9 1 -15 -25 -26 -34 -13 -6 8 -7 6 -3 -6 4 -12 2 -17
-6 -14 -8 2 -12 18 -12 38 1 19 0 28 -3 22 -3 -7 -9 -13 -14 -13 -6 0 -7 5 -4
10 5 9 -7 14 -27 11 -4 0 -6 8 -5 19 1 11 5 20 9 20 4 0 8 4 8 10 0 5 -15 1
-32 -10 -45 -27 -58 -25 -28 4 14 13 30 21 35 18 6 -3 5 1 -2 8 -10 11 -16 9
-33 -11 -13 -14 -20 -17 -17 -8 8 26 -9 45 -26 31 -11 -10 -17 -9 -28 4 -11
13 -11 15 2 14 26 -4 49 0 49 8 0 5 -7 9 -15 9 -8 0 -15 -5 -15 -11 0 -6 -4
-5 -9 3 -6 9 -11 10 -15 2 -4 -6 -12 -11 -18 -11 -6 0 -6 6 2 15 7 9 19 14 27
11 7 -3 13 -1 13 4 0 5 8 6 17 3 12 -5 15 -2 10 10 -3 9 -2 19 3 22 6 4 10 -2
10 -11 0 -10 3 -15 6 -11 4 3 4 14 0 23 -5 13 -9 14 -21 4 -8 -7 -15 -8 -15
-3 0 12 53 58 63 55 5 -1 6 2 2 8 -3 6 -10 8 -15 5 -5 -3 -11 -1 -15 4 -3 6
-21 8 -40 6 -33 -5 -34 -4 -23 15 7 10 15 16 18 11 7 -11 40 -10 40 1 0 7 -15
12 -32 9 -17 -2 -7 19 13 29 12 7 18 18 15 26 -6 16 -4 17 18 8 13 -5 12 -9
-4 -27 -11 -11 -18 -23 -15 -25 2 -3 14 6 25 19 20 23 21 23 15 2 -7 -25 5
-36 25 -21 12 8 11 9 -3 4 -15 -5 -17 -2 -12 13 4 13 -1 24 -15 34 -11 7 -17
17 -13 21 4 4 -1 4 -12 0 -18 -7 -19 -6 -6 10 13 16 16 15 38 -10 13 -15 26
-24 30 -21 3 4 3 7 -2 7 -4 0 -2 6 4 14 12 15 5 46 -11 46 -5 0 -7 4 -3 9 3 6
-3 14 -12 20 -19 11 -19 11 15 15 16 2 21 -2 17 -13 -7 -24 8 -42 25 -31 13 8
12 10 -2 10 -10 0 -18 5 -18 10 0 18 29 10 44 -12 9 -12 19 -19 22 -15 4 4 -4
16 -17 28 -15 13 -18 19 -8 16 13 -4 16 0 12 16 -4 18 -3 19 6 7 7 -9 11 -10
11 -3 0 6 -4 15 -10 18 -5 3 -10 14 -10 23 1 16 1 16 10 0 6 -10 20 -15 35
-14 19 3 24 -1 22 -18 -1 -12 -6 -24 -12 -28 -6 -5 -6 -8 1 -8 6 0 17 7 24 15
9 11 17 12 32 4 10 -6 24 -8 31 -5 7 2 3 5 -7 5 -15 1 -17 4 -9 12 7 7 17 8
25 3 7 -5 16 -9 20 -9 15 0 20 -15 5 -15 -9 0 -17 -5 -17 -10 0 -13 35 4 46
22 4 7 3 8 -4 4 -7 -4 -12 -2 -12 4 0 6 -7 10 -16 8 -10 -2 -19 2 -21 9 -3 8
3 11 16 8 32 -6 62 -25 56 -36 -4 -5 -1 -9 4 -9 14 0 14 17 1 25 -5 3 -10 12
-10 18 1 7 8 3 18 -8 23 -27 57 -33 48 -8 -5 16 -5 16 9 -1 21 -27 19 -35 -7
-31 -26 5 -56 -10 -45 -22 5 -4 12 -2 16 5 13 22 66 -1 53 -23 -3 -5 1 -5 9 1
8 6 21 12 29 12 8 0 25 3 37 6 15 3 20 1 17 -8 -5 -12 -17 -16 -58 -17 -15 0
-16 -2 -5 -12 8 -7 20 -19 28 -27 8 -8 11 -10 8 -4 -4 7 1 18 10 25 15 12 16
12 10 -3 -3 -10 0 -24 8 -32 19 -18 19 -23 0 -23 -8 0 -15 4 -15 9 0 4 -7 8
-15 8 -8 0 -20 9 -27 20 -13 20 -28 27 -28 13 0 -5 16 -19 36 -32 31 -22 34
-26 20 -37 -9 -6 -16 -15 -16 -19 0 -4 7 -2 15 5 14 12 35 6 35 -10 0 -5 -8
-7 -17 -3 -17 5 -17 5 -1 -8 17 -14 11 -43 -8 -39 -5 1 -9 -3 -10 -10 -2 -6
-1 -7 3 0 6 12 63 -26 63 -42 0 -6 -7 -5 -17 3 -14 11 -13 8 2 -11 11 -14 24
-28 28 -31 5 -3 2 -9 -7 -12 -9 -4 -16 -3 -16 1 0 5 -6 16 -13 26 -12 17 -14
17 -20 3 -4 -10 -2 -16 5 -14 6 1 13 -4 15 -11 3 -7 -1 -10 -10 -6 -8 3 -18 1
-22 -5 -4 -7 0 -8 11 -4 13 5 15 3 9 -8 -8 -12 -6 -12 8 0 25 20 21 -1 -4 -22
-11 -10 -18 -21 -14 -25 3 -4 11 1 16 11 6 9 15 17 21 17 6 0 5 -7 -3 -17 -12
-14 -12 -16 0 -9 9 6 12 5 9 -5 -5 -16 -67 -20 -85 -6 -9 6 -13 6 -13 -2 0 -6
5 -11 10 -11 6 0 10 -5 10 -11 0 -6 -9 -8 -20 -4 -12 4 -20 2 -20 -5 0 -6 4
-9 8 -6 5 3 18 -5 30 -19 16 -18 18 -25 7 -29 -8 -3 -17 3 -20 15 -4 11 -9 18
-12 15 -3 -3 -14 -1 -23 4 -14 8 -22 4 -34 -15 -18 -28 -13 -33 10 -10 27 26
38 16 13 -12 -13 -14 -18 -23 -11 -19 6 4 12 3 12 -3 0 -18 -17 -21 -30 -6 -7
8 -16 12 -22 9 -5 -3 -14 -1 -21 5 -9 7 -17 7 -27 -1 -12 -8 -12 -9 2 -4 10 3
20 1 24 -5 3 -6 12 -8 20 -5 7 3 16 1 19 -4 4 -6 1 -10 -6 -10 -7 0 -4 -6 6
-14 11 -8 23 -12 26 -10 11 7 20 -29 10 -39 -5 -5 -7 -16 -4 -24 4 -11 8 -11
17 3 10 13 17 14 34 5 14 -7 23 -8 27 -1 3 5 1 11 -4 11 -6 1 -15 3 -21 4 -5
1 -14 3 -20 4 -5 0 -10 6 -10 13 0 6 3 8 7 5 11 -11 32 14 26 31 -3 10 -1 13
4 7 12 -14 43 -18 43 -5 0 6 -4 9 -8 6 -4 -2 -14 -1 -21 4 -9 5 -3 7 17 7 17
-1 28 -6 25 -12 -4 -5 -3 -7 2 -3 4 4 15 2 23 -5 13 -10 14 -9 7 3 -14 22 -16
48 -5 55 5 3 7 13 4 23 -5 14 -4 15 5 2 9 -13 11 -13 11 0 0 11 2 12 8 3 5 -9
12 -6 21 10 14 21 13 21 -5 7 -18 -14 -18 -14 -4 4 13 18 13 19 0 11 -12 -6
-13 -6 -2 6 11 11 14 12 21 1 7 -11 9 -11 14 0 5 16 -29 23 -38 8 -3 -5 -12
-7 -20 -4 -11 4 -9 10 7 26 11 11 17 26 14 34 -4 12 -2 12 14 4 11 -6 20 -9
21 -8 7 25 5 37 -3 32 -7 -5 -8 -2 -3 5 6 10 3 11 -13 2 -28 -15 -31 -14 -27
7 2 9 4 19 4 22 1 3 6 -2 11 -10 8 -13 11 -13 22 -1 11 12 10 13 -2 6 -8 -5
-12 -5 -8 0 4 4 2 15 -5 24 -11 14 -10 15 7 1 11 -8 17 -10 13 -3 -5 8 -1 11
11 8 11 -2 19 3 19 10 0 8 -4 12 -8 9 -4 -2 -11 1 -15 7 -4 8 -3 9 4 5 8 -5
10 -2 6 8 -3 9 -1 16 6 16 6 0 8 5 4 11 -5 8 -9 8 -14 -1 -5 -9 -9 -9 -14 -1
-4 6 -2 11 5 11 9 0 9 4 -1 15 -6 8 -9 19 -5 25 3 5 -1 13 -10 16 -13 6 -14 8
-3 15 10 7 11 9 0 9 -7 0 -11 4 -7 9 3 5 1 12 -5 16 -6 4 -8 10 -5 15 3 5 1
11 -5 15 -5 3 -10 -1 -10 -9 0 -9 -5 -16 -10 -16 -7 0 -7 6 0 19 13 25 13 31
-1 31 -5 0 -8 -4 -5 -8 2 -4 0 -14 -6 -22 -8 -12 -9 -12 -4 3 4 12 2 16 -5 11
-6 -3 -3 6 7 22 13 18 14 25 5 20 -9 -6 -12 -5 -8 1 8 13 -25 13 -42 -1 -11
-8 -13 -8 -7 1 5 9 2 11 -11 7 -10 -3 -14 -2 -8 3 6 4 11 15 13 23 1 10 -2 9
-13 -4 -8 -11 -15 -15 -15 -10 0 6 6 16 13 24 9 11 8 11 -8 0 -18 -14 -19 -14
-6 2 7 10 17 15 22 12 16 -10 9 9 -8 23 -10 8 -12 11 -4 7 9 -5 12 -3 7 5 -4
6 -12 9 -17 6 -5 -4 -9 -1 -9 4 0 12 27 10 47 -2 6 -4 14 -1 17 5 3 7 3 2 -1
-12 -5 -22 -4 -23 10 -11 9 7 14 18 10 24 -3 6 -1 7 6 3 9 -6 9 -11 -1 -24
-11 -13 -10 -15 5 -9 10 4 16 3 13 -2 -3 -5 1 -12 10 -15 24 -9 28 -7 15 8 -9
11 -8 15 5 20 20 8 36 -12 29 -35 -3 -8 1 -23 8 -33 12 -17 14 -17 20 -2 4 9
2 16 -3 16 -6 0 -10 5 -10 11 0 8 4 8 15 -1 10 -8 12 -18 6 -29 -5 -9 -6 -22
-4 -28 4 -12 -15 -18 -46 -13 -13 1 -13 -1 -2 -14 11 -13 17 -14 28 -4 11 9
16 9 23 -2 10 -16 -6 -31 -24 -24 -7 3 -12 -5 -13 -16 -2 -18 0 -19 21 -4 13
8 29 13 36 12 7 -2 15 3 18 11 3 10 0 11 -9 5 -12 -6 -12 -5 -1 8 9 11 10 18
2 23 -5 3 -10 1 -10 -6 0 -7 -3 -9 -6 -6 -4 4 -1 13 6 22 8 10 9 15 1 15 -6 0
-11 4 -11 10 0 5 7 7 16 3 8 -3 13 -12 10 -19 -3 -7 -1 -16 4 -19 5 -3 12 4
15 16 4 11 9 18 12 16 2 -3 -1 -16 -8 -29 -7 -12 -12 -27 -11 -32 2 -5 -4 -16
-13 -26 -9 -10 -13 -20 -8 -22 11 -7 43 29 35 39 -4 4 2 1 13 -8 11 -9 27 -14
35 -12 8 2 6 -1 -5 -8 -11 -7 -33 -23 -49 -37 -27 -21 -31 -22 -41 -8 -7 9
-16 12 -20 8 -5 -4 -5 -2 -2 4 8 14 -20 27 -28 14 -4 -6 -1 -10 5 -10 7 0 9
-7 6 -16 -3 -8 -2 -12 4 -9 6 3 24 -4 42 -16 21 -15 30 -18 26 -8 -3 8 5 22
21 33 26 20 26 20 9 0 -23 -27 -23 -40 3 -58 l21 -14 -21 -21 c-17 -17 -19
-26 -11 -40 10 -19 -7 -44 -26 -40 -20 3 -28 -2 -15 -10 15 -10 51 -3 51 10 0
5 5 9 11 9 8 0 8 -4 0 -14 -10 -12 -8 -17 8 -25 24 -13 34 -14 26 -2 -3 5 -1
12 4 15 10 7 9 -20 -2 -30 -3 -4 -18 1 -32 10 -33 22 -59 14 -50 -15 5 -16 3
-20 -11 -17 -9 2 -19 -3 -22 -11 -3 -9 0 -11 8 -6 9 6 9 3 1 -13 -16 -29 -13
-41 4 -18 13 18 14 18 12 -2 0 -11 -5 -18 -9 -16 -4 3 -8 0 -8 -7 0 -7 8 -9
21 -6 16 4 19 3 11 -5 -8 -8 -18 -8 -36 0 -18 8 -28 7 -45 -5 -17 -12 -25 -12
-36 -3 -19 16 -19 5 1 -25 16 -24 47 -24 38 0 -10 25 18 27 49 5 24 -19 29
-20 24 -6 -4 10 -3 15 3 11 6 -3 10 -1 10 6 0 7 3 10 6 7 3 -4 0 -16 -6 -28
-11 -20 -13 -20 -29 -6 -24 22 -38 20 -18 -2 15 -16 15 -21 2 -38 -8 -10 -15
-14 -15 -7 0 6 4 15 10 18 6 4 5 11 -3 19 -15 17 -26 12 -22 -12 1 -9 0 -11
-2 -4 -6 15 -16 15 -31 0 -17 -17 -15 -33 3 -18 24 20 18 3 -8 -23 -13 -12
-29 -21 -36 -19 -6 2 -11 0 -10 -5 3 -19 -2 -33 -12 -33 -8 0 -8 5 1 15 15 18
-1 20 -19 3 -6 -7 -31 -13 -54 -13 -23 0 -43 -4 -44 -10 -2 -6 27 -9 72 -9 41
1 75 -2 75 -6 0 -4 17 -4 37 0 20 5 44 5 52 0 8 -4 26 -4 40 2 17 6 27 6 29
-1 2 -6 8 -9 13 -5 17 10 49 13 49 4 0 -5 13 -5 29 0 16 4 31 7 33 5 2 -2 11
10 20 26 11 18 13 27 5 24 -6 -4 -3 1 8 10 11 9 19 21 17 26 -1 5 2 9 7 9 11
0 74 100 74 118 0 6 2 10 5 7 5 -5 192 275 192 288 0 17 -207 150 -221 141 -5
-3 -9 -1 -9 4 0 5 -12 14 -26 21 -20 9 -30 9 -40 0 -12 -10 -13 -8 -8 6 6 15
3 17 -14 13 -12 -4 -20 -2 -16 3 3 5 0 10 -5 10 -16 2 -23 4 -55 18 -16 6 -31
9 -34 6 -3 -2 -10 -1 -17 5 -15 13 -105 27 -218 35 -31 2 -61 6 -66 9 -4 3
-11 3 -14 -1z m8 -14 c-4 -5 1 -19 10 -29 16 -18 16 -19 -3 -31 -20 -13 -20
-13 8 -40 22 -21 25 -29 14 -33 -8 -3 -12 -2 -9 3 3 5 -3 12 -14 16 -11 3 -27
17 -36 31 -15 24 -43 25 -28 1 4 -7 -4 -5 -17 4 -28 18 -32 40 -10 47 13 5 13
3 1 -11 -7 -10 -11 -17 -7 -17 3 0 9 0 14 0 4 0 8 9 8 20 3 43 4 45 14 30 9
-13 11 -13 20 0 9 13 10 13 10 0 1 -12 3 -11 11 3 5 9 12 17 15 17 3 0 2 -5
-1 -11z m-1488 -17 c27 -15 33 -15 29 1 -1 6 -1 8 2 4 2 -4 10 -3 17 3 19 16
38 8 58 -24 13 -21 21 -26 26 -17 6 10 10 9 14 -2 3 -9 -2 -21 -11 -29 -8 -7
-13 -8 -9 -2 3 6 -2 18 -11 27 -9 8 -23 23 -30 31 -7 9 -18 16 -24 16 -6 0 -3
-9 7 -20 10 -11 14 -20 9 -20 -5 -1 2 -7 16 -15 14 -7 24 -16 23 -19 -6 -12
-3 -26 5 -25 21 4 32 -2 26 -13 -5 -8 -2 -9 10 -5 9 4 15 3 12 -2 -3 -5 1 -12
10 -15 9 -4 14 -9 11 -12 -3 -3 -16 1 -28 10 -23 16 -49 7 -49 -16 0 -7 4 -7
13 0 8 7 19 6 37 -3 14 -8 21 -14 17 -15 -5 0 -17 4 -27 10 -13 7 -21 5 -31
-7 -12 -15 -12 -16 4 -10 27 10 59 -10 52 -33 -4 -12 2 -24 17 -34 12 -9 19
-16 15 -16 -4 0 0 -12 9 -27 l16 -28 -19 24 c-40 55 -52 66 -59 58 -5 -4 -4
-11 2 -15 5 -4 20 -23 33 -42 l23 -35 -25 29 c-14 16 -27 24 -31 18 -3 -6 -3
-12 1 -15 5 -2 2 -2 -4 -1 -15 4 -15 2 -7 -20 3 -9 10 -16 16 -16 5 0 6 5 3
10 -3 6 -1 10 5 10 17 0 6 -25 -11 -26 -8 -1 -18 -3 -24 -4 -23 -6 -73 -5 -69
1 2 4 -1 9 -8 11 -6 2 -12 11 -14 20 -1 11 3 15 12 11 9 -3 14 2 14 13 0 16 2
17 10 4 6 -10 5 -17 -6 -23 -16 -9 -10 -27 9 -27 7 0 6 4 -3 10 -13 9 -13 10
0 11 8 1 19 1 23 0 5 -1 5 4 1 10 -4 7 -3 9 2 6 6 -3 10 5 10 18 0 13 -4 21
-8 19 -5 -3 -6 -9 -3 -14 3 -5 0 -12 -6 -15 -7 -5 -9 0 -7 13 2 12 -5 27 -15
34 -14 11 -16 18 -8 38 5 14 11 22 12 18 5 -22 4 -34 -6 -41 -5 -4 3 -5 19 -3
31 6 48 16 25 16 -8 1 -3 7 11 15 29 16 19 20 -11 5 -15 -8 -19 -8 -17 2 2 7
-3 12 -10 10 -9 -1 -11 2 -6 10 5 8 1 7 -11 -2 -17 -13 -18 -13 -11 0 4 8 0 6
-8 -4 -9 -11 -19 -17 -23 -13 -3 4 2 16 11 26 17 19 17 20 -6 32 -13 7 -26 12
-30 11 -5 -1 -9 3 -9 8 -3 20 -4 25 -12 37 -4 7 -13 11 -20 9 -7 -1 -9 -1 -4
1 16 10 5 20 -19 17 -20 -2 -23 0 -14 11 8 9 8 15 0 20 -6 3 -8 10 -6 14 7 11
47 7 73 -7z m1413 12 c0 -1 -14 -17 -32 -35 -17 -19 -28 -29 -25 -22 4 6 -4
20 -18 31 -16 12 -21 22 -13 24 11 4 88 6 88 2z m205 -4 c3 -5 1 -10 -4 -10
-6 0 -11 5 -11 10 0 6 2 10 4 10 3 0 8 -4 11 -10z m-330 -60 c-10 -11 -24 -19
-31 -16 -6 2 -17 -1 -23 -7 -6 -6 -11 -7 -11 -1 0 5 9 17 20 27 12 10 18 22
15 27 -14 23 8 31 28 11 20 -20 20 -21 2 -41z m449 39 c3 -3 -4 -5 -14 -6 -11
-1 -22 2 -24 6 -5 8 30 8 38 0z m-1906 -31 c-11 -11 -17 -26 -14 -34 7 -19 -9
-18 -25 3 -8 10 -9 14 -2 10 6 -4 15 -2 19 4 5 8 3 9 -6 4 -10 -6 -12 -3 -7
11 7 19 7 19 -8 0 -8 -10 -16 -24 -18 -30 -3 -8 -9 -7 -19 2 -13 10 -17 10
-20 0 -4 -11 -8 -11 -20 0 -13 10 -17 10 -21 -2 -3 -7 0 -19 6 -25 6 -6 8 -12
4 -12 -4 -1 -11 -3 -17 -4 -5 -1 -15 -3 -22 -4 -6 0 -8 -4 -5 -7 3 -4 2 -15
-3 -25 -8 -14 -6 -21 10 -29 11 -6 20 -16 20 -22 0 -7 -4 -7 -12 -1 -7 6 -21
9 -30 8 -10 -2 -18 2 -18 8 0 23 -14 -5 -15 -31 -1 -15 -5 -34 -10 -42 -8 -13
-7 -13 9 -1 9 8 16 10 14 4 -3 -11 1 -13 25 -13 8 0 7 4 -3 11 -12 9 -13 12
-1 16 10 4 10 7 2 13 -9 5 -7 11 4 20 14 12 15 10 11 -15 -3 -15 0 -37 6 -48
8 -16 7 -23 -8 -34 -11 -8 -18 -18 -17 -22 1 -4 -5 -8 -13 -8 -8 0 -14 5 -14
10 0 5 -7 4 -15 -3 -9 -7 -18 -10 -22 -6 -3 3 -1 6 6 6 7 0 9 5 5 12 -5 8 -11
6 -19 -5 -11 -15 -13 -14 -23 8 -11 24 -7 29 19 27 3 0 11 8 17 19 11 17 10
20 -5 17 -9 -2 -25 -11 -35 -20 -10 -10 -24 -18 -30 -17 -10 0 -10 2 0 6 6 2
10 9 7 14 -4 5 2 6 11 2 12 -4 15 -3 10 5 -6 11 5 17 26 13 13 -2 2 39 -15 60
-20 23 -22 36 -3 20 15 -12 49 -4 41 10 -3 4 -12 6 -19 3 -8 -3 -17 0 -22 7
-4 8 -3 10 4 5 16 -10 69 20 77 44 3 11 9 19 13 19 22 -3 42 2 38 10 -3 5 1
11 9 15 8 3 17 1 21 -5 4 -6 11 -6 20 2 8 6 14 8 14 3 0 -4 7 1 15 12 8 10 15
16 15 12 0 -4 12 -1 26 7 38 19 58 9 32 -17z m1382 11 c0 -5 -4 -9 -10 -9 -5
0 -10 6 -10 13 0 8 -4 7 -10 -3 -5 -8 -10 -10 -10 -4 0 6 3 13 6 17 8 8 34 -3
34 -14z m31 -2 c-13 -13 -26 -3 -16 12 3 6 11 8 17 5 6 -4 6 -10 -1 -17z m463
-6 c-2 -3 -12 3 -22 13 -16 17 -16 18 5 5 12 -7 20 -15 17 -18z m69 0 c3 -12
0 -18 -7 -15 -6 2 -12 13 -12 24 0 23 12 17 19 -9z m-52 -18 c-12 -20 -14 -14
-5 12 4 9 9 14 11 11 3 -2 0 -13 -6 -23z m-1557 -7 c-3 -9 -10 -16 -15 -16 -5
0 -4 9 3 20 14 22 21 20 12 -4z m916 4 c-17 -11 -9 -13 14 -4 9 3 14 10 11 15
-5 7 33 4 41 -4 2 -2 -2 -12 -10 -22 -9 -12 -18 -15 -27 -9 -18 11 -41 11 -56
0 -8 -5 -18 -4 -26 3 -8 6 -17 9 -20 6 -4 -3 -5 -2 -2 2 3 4 12 8 20 10 8 2
22 4 30 6 8 2 18 6 21 10 4 4 10 5 13 1 3 -3 -1 -9 -9 -14z m-831 -3 c8 -10 7
-14 -2 -14 -8 0 -14 6 -14 14 0 7 1 13 2 13 2 0 8 -6 14 -13z m1578 -2 c0 -8
-5 -11 -10 -8 -6 4 -8 0 -5 -9 4 -8 1 -15 -7 -15 -8 0 -11 7 -7 15 4 11 1 13
-8 7 -9 -5 -11 -4 -6 4 4 6 11 9 16 6 5 -3 11 -1 15 5 9 14 12 13 12 -5z
m-1634 -26 c-8 -8 -13 -7 -18 2 -6 8 -4 10 5 4 10 -6 12 -4 6 11 -6 15 -5 17
5 7 9 -10 10 -16 2 -24z m1557 21 c0 -5 -4 -10 -10 -10 -5 0 -10 5 -10 10 0 6
5 10 10 10 6 0 10 -4 10 -10z m-2026 -23 c16 -11 16 -15 4 -19 -8 -4 -20 2
-26 13 -14 22 -4 25 22 6z m504 -22 c-3 -3 -9 2 -12 12 -6 14 -5 15 5 6 7 -7
10 -15 7 -18z m1348 14 c3 -6 1 -16 -5 -22 -9 -9 -10 -7 -5 7 6 16 4 18 -10
13 -10 -4 -15 -3 -11 3 8 13 22 13 31 -1z m-516 -10 c12 -8 10 -9 -7 -4 -12 3
-24 1 -28 -4 -4 -7 1 -8 12 -5 11 4 5 -6 -15 -25 -18 -17 -29 -31 -24 -31 4 0
8 -9 9 -20 1 -11 -3 -20 -9 -20 -6 0 -8 3 -5 6 3 4 1 16 -5 28 -17 31 -17 54
1 51 9 -1 22 6 29 16 15 22 21 23 42 8z m430 7 c0 -11 -19 -15 -25 -6 -3 5 1
10 9 10 9 0 16 -2 16 -4z m374 -4 c3 -5 -1 -9 -9 -9 -8 0 -12 4 -9 9 3 4 7 8
9 8 2 0 6 -4 9 -8z m-57 -8 c-3 -3 -12 -4 -19 -1 -8 3 -5 6 6 6 11 1 17 -2 13
-5z m-1503 -20 c3 -8 2 -12 -4 -9 -6 3 -10 10 -10 16 0 14 7 11 14 -7z m1457
-7 c-10 -9 -11 -8 -5 6 3 10 9 15 12 12 3 -3 0 -11 -7 -18z m72 -8 c-8 -8 -13
-7 -18 2 -6 8 -4 10 5 4 10 -6 12 -4 6 11 -6 15 -5 17 5 7 9 -10 10 -16 2 -24z
m112 21 c3 -5 1 -10 -4 -10 -6 0 -11 5 -11 10 0 6 2 10 4 10 3 0 8 -4 11 -10z
m-865 -15 c19 -23 1 -39 -21 -19 -10 9 -16 21 -13 25 8 13 20 11 34 -6z m455
-5 c-3 -5 -12 -10 -18 -10 -7 0 -6 4 3 10 19 12 23 12 15 0z m43 -10 c7 -12
20 -19 30 -18 11 2 17 -4 17 -20 0 -12 7 -27 15 -32 12 -8 12 -10 1 -10 -11 0
-11 -3 -1 -15 7 -9 10 -18 7 -22 -4 -3 -2 -12 5 -20 6 -7 8 -16 5 -20 -4 -3
-2 -12 4 -19 8 -10 6 -12 -12 -9 -29 6 -44 -4 -27 -18 7 -7 11 -11 9 -10 -2 2
-10 -2 -17 -8 -8 -7 -14 -7 -19 1 -3 5 -1 10 4 10 17 0 -11 39 -32 46 -9 3
-15 10 -11 15 11 19 14 58 4 64 -5 3 -10 11 -10 18 0 6 6 3 13 -7 12 -16 13
-16 12 7 0 13 -7 32 -15 42 -9 11 -10 16 -2 11 15 -9 16 6 0 22 -7 7 -8 12 -2
12 5 0 15 -9 22 -20z m214 13 c-6 -2 -9 -10 -6 -15 4 -7 2 -8 -5 -4 -13 9 -5
26 12 25 9 0 8 -2 -1 -6z m-1582 -23 c0 -5 -4 -10 -10 -10 -5 0 -10 5 -10 10
0 6 5 10 10 10 6 0 10 -4 10 -10z m95 0 c3 -5 1 -10 -4 -10 -6 0 -11 5 -11 10
0 6 2 10 4 10 3 0 8 -4 11 -10z m1534 -16 c4 3 8 -1 8 -9 0 -18 -24 -28 -33
-13 -5 7 -2 8 6 3 9 -5 11 -1 6 16 -3 13 -3 18 0 11 3 -6 9 -10 13 -8z m91 12
c0 -2 -8 -10 -17 -17 -16 -13 -17 -12 -4 4 13 16 21 21 21 13z m-1875 -25 c-3
-6 -11 -8 -17 -5 -6 4 -5 9 3 15 16 10 23 4 14 -10z m195 15 c0 -2 -7 -6 -15
-10 -8 -3 -15 -1 -15 4 0 6 7 10 15 10 8 0 15 -2 15 -4z m736 -30 c-4 -23 -38
-78 -44 -72 -3 4 -12 -4 -18 -16 l-13 -23 2 23 c1 20 5 24 23 21 14 -2 22 26
12 38 -8 10 -7 12 6 7 16 -6 22 7 9 20 -4 3 -8 13 -9 21 -2 11 2 12 16 3 10
-6 17 -16 16 -22z m-1356 -1 c-5 -7 -7 -15 -3 -18 3 -4 1 -7 -5 -7 -6 0 -10 8
-9 18 0 10 7 19 14 19 9 0 10 -4 3 -12z m580 5 c0 -5 -4 -10 -10 -10 -5 0 -10
5 -10 10 0 6 5 10 10 10 6 0 10 -4 10 -10z m41 -8 c-7 -13 -6 -23 2 -32 9 -9
6 -8 -10 1 -13 8 -23 17 -23 22 0 4 4 6 9 3 5 -3 11 1 15 9 3 8 8 15 11 15 3
0 1 -8 -4 -18z m59 14 c0 -3 -4 -8 -10 -11 -5 -3 -10 -1 -10 4 0 6 5 11 10 11
6 0 10 -2 10 -4z m-779 -26 c6 0 7 5 4 10 -3 6 -1 10 5 10 7 0 10 -6 8 -12 -6
-17 -31 -17 -34 0 -1 7 0 8 3 2 2 -5 9 -10 14 -10z m2279 -1 c0 -6 -4 -7 -10
-4 -5 3 -10 11 -10 16 0 6 5 7 10 4 6 -3 10 -11 10 -16z m77 5 c-3 -3 -11 -7
-19 -8 -7 -1 -24 -8 -38 -15 l-25 -12 23 18 c20 16 74 31 59 17z m-2382 -25
c-4 -5 -12 -9 -18 -8 -9 0 -8 2 1 6 6 2 9 10 6 15 -4 7 -2 8 5 4 6 -4 9 -12 6
-17z m2277 -6 c-6 -3 -9 -10 -6 -15 4 -7 2 -8 -5 -4 -9 6 -9 11 0 22 6 8 15
12 18 8 3 -4 0 -9 -7 -11z m-1012 -14 c0 -6 -4 -7 -10 -4 -5 3 -10 11 -10 16
0 6 5 7 10 4 6 -3 10 -11 10 -16z m-1287 -14 c-3 -9 -8 -14 -10 -11 -3 3 -2 9
2 15 9 16 15 13 8 -4z m2337 11 c0 -2 -7 -6 -15 -10 -8 -3 -15 -1 -15 4 0 6 7
10 15 10 8 0 15 -2 15 -4z m-1564 -34 c-17 -16 -18 -16 -5 5 7 12 15 20 18 17
3 -2 -3 -12 -13 -22z m474 18 c0 -5 -4 -10 -10 -10 -5 0 -10 5 -10 10 0 6 5
10 10 10 6 0 10 -4 10 -10z m-1220 -18 c0 -5 -7 -9 -15 -9 -8 0 -12 4 -9 9 3
4 9 8 15 8 5 0 9 -4 9 -8z m1255 -3 c11 -16 1 -19 -13 -3 -7 8 -8 14 -3 14 5
0 13 -5 16 -11z m55 1 c0 -5 -4 -10 -10 -10 -5 0 -10 5 -10 10 0 6 5 10 10 10
6 0 10 -4 10 -10z m209 1 c3 -1 -8 -14 -24 -31 -21 -22 -25 -32 -17 -43 8 -10
6 -13 -10 -14 -11 -1 -28 -9 -37 -17 -10 -9 -21 -13 -24 -9 -4 3 -7 0 -7 -7 0
-7 -3 -11 -6 -7 -4 3 3 18 15 33 11 14 18 31 15 36 -4 6 1 8 13 4 14 -4 25 3
43 26 13 18 17 27 8 20 -8 -7 -23 -10 -32 -6 -9 3 -16 1 -16 -6 0 -6 5 -8 10
-5 6 3 10 -1 10 -9 0 -9 -4 -16 -10 -16 -5 0 -10 5 -10 11 0 5 -3 8 -7 6 -5
-3 -9 5 -9 17 -2 20 3 22 45 20 25 -1 48 -2 50 -3z m808 -13 c-3 -8 -6 -5 -6
6 -1 11 2 17 5 13 3 -3 4 -12 1 -19z m193 16 c0 -8 -19 -13 -24 -6 -3 5 1 9 9
9 8 0 15 -2 15 -3z m-229 -31 c-12 -20 -14 -14 -5 12 4 9 9 14 11 11 3 -2 0
-13 -6 -23z m85 4 c0 -13 -6 -24 -13 -24 -6 0 -9 5 -5 11 4 6 7 14 8 19 5 26
10 23 10 -6z m-1676 3 c0 -5 -4 -10 -10 -10 -5 0 -10 5 -10 10 0 6 5 10 10 10
6 0 10 -4 10 -10z m100 4 c0 -8 -19 -13 -24 -6 -3 5 1 9 9 9 8 0 15 -2 15 -3z
m435 -4 c-3 -5 0 -10 7 -11 10 0 10 -2 0 -6 -6 -2 -10 -9 -7 -13 3 -5 -5 -14
-17 -20 -19 -9 -21 -9 -8 2 9 7 15 20 15 28 -1 17 4 30 11 30 3 0 2 -4 -1 -10z
m1189 2 c2 -4 -4 -8 -14 -8 -10 0 -16 4 -14 8 3 4 9 8 14 8 5 0 11 -4 14 -8z
m56 4 c0 -3 -4 -8 -10 -11 -5 -3 -10 -1 -10 4 0 6 5 11 10 11 6 0 10 -2 10 -4z
m-1340 -27 c0 -5 -4 -9 -8 -9 -5 0 -9 7 -9 15 0 8 4 12 9 9 4 -3 8 -9 8 -15z
m1134 -4 c3 -8 1 -15 -4 -15 -6 0 -10 7 -10 15 0 8 2 15 4 15 2 0 6 -7 10 -15z
m56 5 c8 -5 11 -10 5 -10 -5 0 -17 5 -25 10 -8 5 -10 10 -5 10 6 0 17 -5 25
-10z m-1533 -15 c0 -8 -4 -12 -9 -9 -5 3 -6 10 -3 15 9 13 12 11 12 -6z m1520
-26 c2 -18 1 -20 -6 -9 -5 8 -8 17 -5 21 2 4 -1 10 -6 12 -6 3 -5 4 1 3 7 -1
14 -13 16 -27z m-1067 1 c-24 -15 -36 -11 -14 4 10 8 21 12 24 10 2 -3 -2 -9
-10 -14z m-130 -20 c0 -5 -2 -10 -4 -10 -3 0 -8 5 -11 10 -3 6 -1 10 4 10 6 0
11 -4 11 -10z m1171 -13 c-10 -9 -11 -8 -5 6 3 10 9 15 12 12 3 -3 0 -11 -7
-18z m-1031 -8 c0 -6 -4 -7 -10 -4 -5 3 -10 11 -10 16 0 6 5 7 10 4 6 -3 10
-11 10 -16z m1160 18 c0 -2 -10 -12 -22 -23 l-23 -19 19 23 c18 21 26 27 26
19z m-1236 -16 c3 -4 -5 -7 -17 -6 -12 1 -29 -3 -37 -9 -13 -9 -13 -8 -3 4 13
17 50 24 57 11z m32 -16 c1 -8 -1 -17 -5 -19 -4 -3 -7 6 -7 19 0 25 8 25 12 0z
m887 13 c2 -7 1 -22 -4 -33 -8 -22 -9 -22 -15 18 -5 27 10 38 19 15z m42 2 c3
-6 -1 -7 -9 -4 -18 7 -21 14 -7 14 6 0 13 -4 16 -10z m216 -22 c-10 -11 -11
-9 -5 6 6 15 4 17 -6 11 -9 -6 -11 -4 -5 4 5 9 10 10 18 2 8 -8 7 -14 -2 -23z
m112 17 c4 -8 3 -16 -1 -19 -4 -3 -9 4 -9 15 -2 23 3 25 10 4z m-199 -28 c4 4
4 0 1 -9 -5 -13 -2 -16 17 -12 21 4 21 4 3 -5 -14 -6 -23 -5 -31 5 -6 7 -13
12 -15 9 -3 -2 -5 6 -6 18 -2 20 -1 21 11 5 7 -10 16 -15 20 -11z m-799 -7 c3
5 11 8 16 4 6 -3 3 -12 -8 -19 -12 -9 -20 -10 -24 -3 -4 7 -9 6 -13 -1 -4 -6
-2 -11 4 -11 7 0 10 -7 6 -17 -4 -12 1 -9 12 6 15 18 21 21 27 11 5 -9 4 -11
-3 -6 -7 4 -12 3 -12 -2 0 -16 30 -23 50 -12 25 13 28 13 26 -4 0 -8 3 -15 8
-15 9 1 26 -21 26 -34 0 -4 -10 -3 -21 4 -17 9 -24 8 -38 -7 -9 -10 -12 -15
-7 -11 9 6 43 -31 39 -43 -1 -3 7 -6 17 -6 10 0 16 5 13 11 -4 5 -2 7 2 2 19
-16 12 -43 -11 -43 -13 0 -21 3 -18 7 2 4 0 10 -6 14 -6 4 -8 11 -5 16 6 9 -3
12 -38 12 -13 0 -15 3 -6 13 10 13 6 18 -13 15 -5 0 -7 4 -5 11 1 7 -4 12 -10
13 -20 0 -47 47 -48 82 -1 30 0 32 16 17 11 -10 19 -12 24 -4z m861 5 c-1 -8
-5 -17 -8 -21 -5 -4 -4 16 1 34 3 9 9 -1 7 -13z m-1091 -5 c-3 -5 -11 -10 -16
-10 -6 0 -7 5 -4 10 3 6 11 10 16 10 6 0 7 -4 4 -10z m-1114 -38 c-7 -2 -18 1
-23 6 -8 8 -4 9 13 5 13 -4 18 -8 10 -11z m455 5 c8 3 14 1 14 -4 0 -5 -10 -9
-23 -9 -13 0 -24 6 -24 13 0 9 4 10 10 4 5 -5 16 -7 23 -4z m1654 3 c0 -5 -2
-10 -4 -10 -3 0 -8 5 -11 10 -3 6 -1 10 4 10 6 0 11 -4 11 -10z m237 -5 c0 -8
-4 -12 -9 -9 -5 3 -6 10 -3 15 9 13 12 11 12 -6z m-1402 -5 c3 -5 1 -10 -4
-10 -6 0 -11 5 -11 10 0 6 2 10 4 10 3 0 8 -4 11 -10z m219 -5 c-4 -8 -8 -15
-10 -15 -2 0 -4 7 -4 15 0 8 4 15 10 15 5 0 7 -7 4 -15z m781 -4 c-4 -11 -3
-12 10 -1 14 12 18 9 13 -7 -5 -12 -30 -13 -51 -1 -14 7 -22 6 -31 -2 -8 -8
-6 -10 9 -5 16 6 17 5 5 -4 -8 -6 -12 -11 -8 -11 3 0 15 -3 25 -6 15 -5 15 -4
3 5 -8 6 -10 11 -4 11 19 0 37 -27 24 -35 -6 -4 -9 -13 -6 -20 3 -9 -5 -12
-25 -10 -39 3 -49 14 -26 27 17 9 18 11 1 29 -13 14 -14 22 -5 33 16 18 73 16
66 -3z m182 -6 c-7 -17 -27 -21 -27 -4 0 5 5 7 10 4 6 -3 10 2 10 11 0 10 3
15 6 11 4 -3 4 -13 1 -22z m68 15 c3 -6 -1 -7 -9 -4 -18 7 -21 14 -7 14 6 0
13 -4 16 -10z m-2212 -13 c7 3 9 2 4 -2 -4 -5 -16 -9 -27 -10 -16 -1 -17 1 -8
13 8 9 14 10 16 3 2 -6 9 -8 15 -4z m1064 -2 c0 -8 -4 -12 -9 -9 -5 3 -6 10
-3 15 9 13 12 11 12 -6z m43 11 c0 -2 -8 -10 -17 -17 -16 -13 -17 -12 -4 4 13
16 21 21 21 13z m40 -6 c0 -5 -8 -10 -17 -10 -15 0 -16 2 -3 10 19 12 20 12
20 0z m1035 0 c3 -5 1 -10 -4 -10 -6 0 -11 5 -11 10 0 6 2 10 4 10 3 0 8 -4
11 -10z m-2140 -10 c3 -6 -1 -7 -9 -4 -18 7 -21 14 -7 14 6 0 13 -4 16 -10z
m392 -32 c-3 -7 -5 -2 -5 12 0 14 2 19 5 13 2 -7 2 -19 0 -25z m1768 22 c-3
-5 -12 -10 -18 -10 -7 0 -6 4 3 10 19 12 23 12 15 0z m60 -2 c5 4 5 1 1 -6 -6
-10 -11 -10 -22 -1 -8 6 -14 14 -14 16 0 3 6 0 13 -6 8 -6 18 -7 22 -3z
m-2235 -2 c0 -3 -4 -8 -10 -11 -5 -3 -10 -1 -10 4 0 6 5 11 10 11 6 0 10 -2
10 -4z m50 -6 c0 -5 -4 -10 -10 -10 -5 0 -10 5 -10 10 0 6 5 10 10 10 6 0 10
-4 10 -10z m283 3 c-7 -2 -13 -9 -13 -14 0 -6 5 -7 12 -3 7 4 8 3 4 -5 -4 -6
-12 -9 -17 -6 -5 4 -9 1 -9 -6 0 -7 -3 -10 -6 -7 -9 9 15 48 29 47 9 0 9 -2 0
-6z m105 -14 c9 -12 9 -16 -1 -16 -7 0 -14 9 -14 20 -1 11 -1 18 0 16 2 -2 8
-11 15 -20z m73 4 c13 -16 12 -17 -3 -4 -10 7 -18 15 -18 17 0 8 8 3 21 -13z
m659 7 c12 -7 10 -9 -8 -7 -12 0 -22 5 -22 9 0 11 12 10 30 -2z m970 6 c0 -2
-7 -7 -16 -10 -8 -3 -12 -2 -9 4 6 10 25 14 25 6z m111 -19 c-10 -9 -11 -8 -5
6 3 10 9 15 12 12 3 -3 0 -11 -7 -18z m89 13 c0 -5 -5 -10 -11 -10 -5 0 -7 5
-4 10 3 6 8 10 11 10 2 0 4 -4 4 -10z m-1303 -15 c0 -8 -4 -12 -9 -9 -5 3 -6
10 -3 15 9 13 12 11 12 -6z m1258 6 c3 -5 2 -12 -3 -15 -5 -3 -9 1 -9 9 0 17
3 19 12 6z m-1159 -13 c4 -7 3 -8 -4 -4 -7 4 -12 2 -12 -5 0 -7 -3 -10 -6 -6
-6 5 3 27 11 27 2 0 7 -5 11 -12z m712 -13 c7 -16 8 -26 1 -30 -5 -4 -8 -14
-7 -22 2 -9 -5 -17 -15 -18 -9 -2 -15 1 -11 6 3 5 10 6 16 3 6 -4 8 -3 5 3 -4
6 -18 9 -32 8 -14 -2 -28 2 -32 7 -3 6 -1 8 5 4 6 -3 14 -2 17 4 4 6 15 8 26
5 11 -4 19 -2 19 5 0 6 -4 9 -9 6 -5 -3 -15 2 -22 11 -12 14 -11 15 11 10 14
-4 19 -4 13 -1 -15 6 -18 24 -5 24 5 0 14 -11 20 -25z m320 2 c6 3 12 0 12 -5
0 -14 -33 -8 -38 6 -2 7 -9 9 -14 6 -7 -5 -8 -2 -3 6 6 10 10 10 19 -2 6 -8
17 -13 24 -11z m-1986 -12 c-8 -16 -9 -16 -15 -1 -4 10 -3 15 3 11 6 -3 10 -1
10 6 0 7 3 10 6 6 3 -3 2 -13 -4 -22z m53 6 c-3 -6 -11 -11 -16 -11 -5 0 -4 6
3 14 14 16 24 13 13 -3z m915 -18 c-11 -17 -11 -17 -6 0 3 10 6 24 7 30 0 9 2
9 5 0 3 -7 0 -20 -6 -30z m290 15 c0 -5 -5 -6 -12 -2 -7 5 -8 3 -3 -6 6 -10
13 -7 27 11 13 16 18 18 14 7 -3 -12 5 -24 25 -39 24 -17 28 -24 17 -31 -9 -6
-5 -7 12 -3 14 3 21 3 15 -2 -5 -4 -11 -15 -13 -23 -2 -11 1 -11 11 3 15 18
28 23 26 10 -1 -5 -1 -15 0 -22 1 -12 4 -12 13 -3 7 7 17 12 23 12 5 0 3 -5
-5 -11 -13 -9 -12 -10 3 -5 15 5 16 3 6 -15 l-11 -21 -22 21 c-12 12 -25 18
-28 15 -4 -3 -15 -1 -25 5 -13 7 -14 10 -4 11 11 0 9 4 -5 15 -10 8 -15 15
-11 15 18 0 -25 33 -45 34 -11 1 -27 11 -35 23 -13 20 -13 21 6 16 12 -3 21
-10 21 -15z m-1605 3 c3 -5 2 -12 -3 -15 -5 -3 -9 1 -9 9 0 17 3 19 12 6z
m219 -30 c-5 -6 -34 20 -34 30 0 5 8 1 18 -8 10 -10 17 -20 16 -22z m30 31 c3
-5 -1 -9 -9 -9 -8 0 -15 4 -15 9 0 4 4 8 9 8 6 0 12 -4 15 -8z m66 -7 c19 -22
8 -25 -12 -3 -10 10 -14 18 -9 18 5 0 14 -7 21 -15z m130 1 c-7 -7 -13 -7 -20
0 -6 6 -3 10 10 10 13 0 16 -4 10 -10z m75 5 c3 -5 2 -12 -3 -15 -5 -3 -9 1
-9 9 0 17 3 19 12 6z m60 0 c3 -5 2 -12 -3 -15 -5 -3 -9 1 -9 9 0 17 3 19 12
6z m616 -8 c13 -16 12 -17 -3 -4 -17 13 -22 21 -14 21 2 0 10 -8 17 -17z m523
-34 c-6 -11 34 -31 47 -23 12 7 51 -25 43 -37 -3 -5 0 -9 7 -9 8 0 8 -4 1 -13
-8 -10 -6 -13 8 -14 11 -1 22 2 25 8 3 5 -2 6 -12 3 -15 -5 -16 -4 -3 5 22 16
33 13 25 -6 -4 -13 -3 -15 5 -7 6 6 8 18 4 28 -5 13 -9 14 -20 5 -19 -16 -28
-5 -16 18 7 12 7 25 1 34 -11 18 -11 29 0 29 5 0 12 -11 15 -24 3 -14 13 -32
22 -40 17 -18 38 -12 31 8 -3 7 1 13 9 13 7 0 10 -5 7 -11 -4 -5 -7 -24 -8
-40 -1 -27 -5 -30 -36 -31 -19 -1 -40 -4 -46 -8 -6 -4 -15 -3 -18 3 -4 6 -15
8 -26 5 -22 -7 -23 -2 -8 27 13 25 -5 41 -35 32 -11 -4 -16 -2 -12 4 3 6 -11
20 -31 32 -36 21 -37 23 -18 36 17 13 21 13 32 -2 7 -9 10 -21 7 -25z m-1422
20 c2 -2 1 -3 -1 -2 -2 2 -10 -2 -18 -9 -10 -8 -17 -8 -26 1 -9 10 -8 11 7 5
13 -5 17 -4 13 3 -4 7 -1 10 8 9 8 -1 16 -4 17 -7z m944 -8 c-17 -18 -38 -22
-52 -8 -4 3 3 5 14 2 11 -2 26 3 33 11 6 8 14 14 17 14 3 0 -3 -9 -12 -19z
m124 2 c0 -3 -7 -2 -16 1 -12 4 -15 2 -10 -9 3 -8 1 -15 -4 -15 -11 0 -14 23
-4 33 6 6 34 -2 34 -10z m911 -6 c-10 -9 -11 -8 -5 6 3 10 9 15 12 12 3 -3 0
-11 -7 -18z m-2091 -1 c0 -3 -4 -8 -10 -11 -5 -3 -10 -1 -10 4 0 6 5 11 10 11
6 0 10 -2 10 -4z m176 -18 c19 -23 19 -23 -2 -5 -11 9 -24 14 -29 10 -4 -5 -5
-2 -1 5 9 16 10 16 32 -10z m49 12 c-3 -5 -12 -10 -18 -10 -7 0 -6 4 3 10 19
12 23 12 15 0z m70 -7 c-1 -10 3 -25 9 -33 9 -13 9 -13 -6 -2 -13 10 -16 26
-9 50 4 11 9 -2 6 -15z m98 2 c4 -8 3 -16 -1 -19 -4 -3 -9 4 -9 15 -2 23 3 25
10 4z m538 -2 c13 -16 12 -17 -3 -4 -17 13 -22 21 -14 21 2 0 10 -8 17 -17z
m171 3 c-4 -6 -7 -14 -7 -18 0 -19 -11 -14 -11 6 0 12 6 23 13 23 6 0 9 -5 5
-11z m1028 10 c0 -2 -7 -7 -16 -10 -8 -3 -12 -2 -9 4 6 10 25 14 25 6z m94 -4
c2 -4 -4 -8 -14 -8 -10 0 -16 4 -14 8 3 4 9 8 14 8 5 0 11 -4 14 -8z m-2270
-20 c2 -4 -5 -9 -17 -9 -17 -2 -19 0 -7 7 18 12 18 12 24 2z m406 4 c0 -3 -4
-8 -10 -11 -5 -3 -10 -1 -10 4 0 6 5 11 10 11 6 0 10 -2 10 -4z m1740 -21 c14
-19 14 -19 -2 -6 -10 7 -18 18 -18 24 0 6 1 8 3 6 1 -2 9 -13 17 -24z m40 17
c0 -5 -7 -9 -15 -9 -8 0 -12 4 -9 9 3 4 9 8 15 8 5 0 9 -4 9 -8z m-1124 -22
c0 -12 -4 -16 -9 -11 -5 5 -6 14 -3 20 10 15 12 14 12 -9z m1182 -5 c-3 -3 -9
2 -12 12 -6 14 -5 15 5 6 7 -7 10 -15 7 -18z m-2178 5 c0 -5 -2 -10 -4 -10 -3
0 -8 5 -11 10 -3 6 -1 10 4 10 6 0 11 -4 11 -10z m35 1 c3 -5 2 -12 -3 -15 -5
-3 -9 1 -9 9 0 17 3 19 12 6z m1090 -20 c-3 -2 -11 1 -18 7 -8 7 -18 8 -22 4
-5 -4 -5 -1 -1 5 5 10 11 10 26 1 11 -7 17 -14 15 -17z m77 11 c-7 -2 -10 -8
-7 -13 4 -5 -2 -6 -11 -2 -11 4 -13 8 -6 11 7 2 10 8 7 13 -4 5 2 6 11 2 11
-4 13 -8 6 -11z m808 1 c0 -3 -6 -3 -14 0 -8 3 -23 -3 -35 -14 -12 -11 -21
-16 -21 -11 0 14 43 40 58 35 6 -3 12 -7 12 -10z m40 12 c0 -2 -6 -8 -13 -14
-10 -8 -14 -7 -14 2 0 8 6 14 14 14 7 0 13 -1 13 -2z m-1716 -24 c3 -5 -2 -15
-12 -22 -15 -12 -16 -12 -5 2 7 9 10 19 6 22 -3 4 -4 7 0 7 3 0 8 -4 11 -9z
m1741 0 c3 -5 2 -12 -3 -15 -5 -3 -9 1 -9 9 0 17 3 19 12 6z m-851 -16 c3 -8
1 -15 -4 -15 -6 0 -10 7 -10 15 0 8 2 15 4 15 2 0 6 -7 10 -15z m757 -13 c-12
-22 -53 -23 -59 -1 -2 8 0 10 5 4 13 -16 45 -15 39 2 -3 8 -1 11 4 8 6 -3 10
-1 10 6 0 7 3 10 6 7 3 -4 1 -15 -5 -26z m-864 -2 c-2 -11 -6 -22 -9 -26 -4
-3 -5 2 -3 13 2 10 4 21 4 26 1 4 3 7 6 7 3 0 4 -9 2 -20z m73 5 c19 -22 8
-25 -12 -3 -10 10 -14 18 -9 18 5 0 14 -7 21 -15z m944 7 c3 -5 -1 -9 -9 -9
-8 0 -12 4 -9 9 3 4 7 8 9 8 2 0 6 -4 9 -8z m-958 -37 c1 -9 -4 -11 -14 -7
-10 4 -12 7 -4 10 7 2 9 9 5 15 -3 7 -2 8 2 4 5 -4 10 -14 11 -22z m84 -1 c0
-8 -4 -14 -10 -14 -5 0 -7 8 -3 18 5 14 3 15 -8 5 -7 -7 -17 -13 -23 -13 -5 0
-1 6 9 14 22 16 35 12 35 -10z m785 16 c-3 -5 -12 -10 -18 -10 -7 0 -6 4 3 10
19 12 23 12 15 0z m-1030 -19 c3 -5 2 -12 -3 -15 -5 -3 -9 1 -9 9 0 17 3 19
12 6z m310 -30 c-6 -5 -25 10 -25 20 0 5 6 4 14 -3 8 -7 12 -15 11 -17z m55
-8 c0 -1 -7 1 -17 4 -9 4 -14 2 -10 -3 3 -6 -4 -11 -16 -11 -19 -2 -20 -1 -5
8 10 6 15 16 11 25 -5 14 -2 13 15 -2 12 -10 22 -20 22 -21z m-135 9 c-3 -3
-11 0 -18 7 -9 10 -8 11 6 5 10 -3 15 -9 12 -12z m-165 4 c0 -2 -8 -10 -17
-17 -16 -13 -17 -12 -4 4 13 16 21 21 21 13z m140 -14 c0 -5 -7 -9 -15 -9 -8
0 -12 4 -9 9 3 4 9 8 15 8 5 0 9 -4 9 -8z m175 -33 c0 -8 -6 -13 -14 -11 -9 2
-11 -3 -7 -13 3 -9 2 -13 -4 -10 -8 5 -8 20 -1 53 3 11 26 -7 26 -19z m-175 7
c0 -2 -8 -10 -17 -17 -16 -13 -17 -12 -4 4 13 16 21 21 21 13z m54 -11 c-4 -8
-8 -15 -10 -15 -2 0 -4 7 -4 15 0 8 4 15 10 15 5 0 7 -7 4 -15z m50 -2 c4 -10
4 -14 0 -11 -4 4 -16 3 -28 -3 -19 -9 -19 -9 -4 4 10 8 15 17 11 20 -3 4 -2 7
4 7 6 0 14 -8 17 -17z m115 -27 c-3 -3 -11 5 -18 17 -13 21 -12 21 5 5 10 -10
16 -20 13 -22z m-74 -14 c18 -22 18 -23 0 -16 -11 5 -16 4 -12 -3 3 -5 0 -10
-8 -10 -10 0 -12 4 -5 12 6 7 7 21 4 31 -4 11 -5 17 -3 14 2 -3 13 -15 24 -28z
m55 8 c7 -14 7 -20 0 -20 -5 0 -10 7 -10 16 0 9 -5 12 -12 8 -7 -4 -8 -3 -4 4
10 16 14 15 26 -8z m-142 -15 c-3 -3 -9 2 -12 12 -6 14 -5 15 5 6 7 -7 10 -15
7 -18z m197 4 c11 -16 1 -19 -13 -3 -7 8 -8 14 -3 14 5 0 13 -5 16 -11z m50 1
c3 -5 2 -10 -4 -10 -5 0 -13 5 -16 10 -3 6 -2 10 4 10 5 0 13 -4 16 -10z m61
-6 c18 -14 18 -14 -6 -3 -31 14 -36 19 -24 19 6 0 19 -7 30 -16z m-406 -14 c0
-5 -2 -10 -4 -10 -3 0 -8 5 -11 10 -3 6 -1 10 4 10 6 0 11 -4 11 -10z m380 0
c0 -5 -4 -10 -10 -10 -5 0 -10 5 -10 10 0 6 5 10 10 10 6 0 10 -4 10 -10z
m115 -9 c3 -5 0 -13 -6 -17 -7 -4 -9 -3 -5 4 3 5 0 13 -6 15 -9 4 -10 6 -1 6
6 1 14 -3 18 -8z m226 -8 c13 -16 12 -17 -3 -4 -10 7 -18 15 -18 17 0 8 8 3
21 -13z m-621 -5 c0 -4 -4 -8 -9 -8 -6 0 -12 4 -15 8 -3 5 1 9 9 9 8 0 15 -4
15 -9z m117 -7 c0 -11 -5 -18 -9 -15 -4 3 -5 11 -1 19 7 21 12 19 10 -4z m63
7 c0 -6 -3 -8 -7 -5 -3 4 -16 -1 -27 -10 -21 -18 -21 -18 -2 5 21 24 36 29 36
10z m54 1 c3 -3 -5 -5 -19 -5 -13 0 -22 3 -19 7 4 8 30 6 38 -2z m103 4 c-9
-8 -47 -11 -47 -4 0 5 11 9 25 9 14 0 24 -2 22 -5z m94 -16 c-10 -9 -11 -8 -5
6 3 10 9 15 12 12 3 -3 0 -11 -7 -18z m143 14 c-7 -8 -54 -9 -59 -2 -2 4 12 7
30 7 19 0 32 -3 29 -5z m126 -21 c0 -5 -5 -10 -11 -10 -5 0 -7 5 -4 10 3 6 8
10 11 10 2 0 4 -4 4 -10z m-127 -15 c-3 -9 -8 -14 -10 -11 -3 3 -2 9 2 15 9
16 15 13 8 -4z"/>
<path d="M2191 3328 c13 -24 21 -27 48 -17 31 12 14 33 -28 34 -25 1 -28 -2
-20 -17z m26 -3 c0 -8 -4 -12 -9 -9 -5 3 -6 10 -3 15 9 13 12 11 12 -6z m28 5
c3 -5 1 -10 -4 -10 -6 0 -11 5 -11 10 0 6 2 10 4 10 3 0 8 -4 11 -10z"/>
<path d="M700 3345 c5 -6 7 -14 5 -17 -3 -3 6 -4 20 -2 19 2 25 -2 21 -11 -2
-7 2 -19 9 -25 8 -7 12 -17 8 -23 -3 -6 -1 -7 5 -3 6 3 15 -2 21 -11 6 -10 11
-13 11 -8 0 6 9 -3 20 -20 11 -16 20 -26 20 -21 0 5 7 2 17 -5 15 -13 15 -12
3 8 -8 12 -16 21 -19 20 -4 -1 -17 9 -30 22 -14 14 -18 22 -9 19 8 -4 15 -1
15 7 0 7 -7 12 -15 11 -8 0 -16 7 -17 16 -2 11 2 15 12 11 12 -5 12 -7 1 -15
-9 -6 -6 -7 10 -3 23 7 26 2 24 -43 -1 -12 3 -20 8 -17 5 3 12 1 15 -5 5 -8
11 -7 21 1 20 17 17 28 -7 24 -15 -3 -19 0 -15 10 3 8 -4 24 -16 35 -12 11
-18 20 -14 20 4 0 1 6 -6 14 -8 9 -17 11 -24 5 -14 -11 -36 -8 -46 6 -4 5 -18
10 -32 11 -19 1 -23 -2 -16 -11z m74 -37 c1 -7 6 -20 11 -28 5 -10 1 -8 -13 3
-11 11 -18 25 -15 33 6 16 13 13 17 -8z"/>
<path d="M910 3159 c0 -5 -5 -7 -10 -4 -6 4 -10 3 -9 -2 4 -23 -3 -31 -22 -28
-12 3 -18 1 -15 -3 4 -4 13 -7 19 -7 7 0 11 -10 11 -23 -2 -25 8 -28 25 -8 10
11 9 16 -4 23 -14 8 -13 11 5 28 22 20 26 35 10 35 -5 0 -10 -5 -10 -11z"/>
<path d="M875 3051 c-3 -6 -10 -9 -14 -7 -4 3 -8 -1 -8 -7 0 -16 34 -20 43 -5
3 5 2 14 -4 20 -6 6 -12 6 -17 -1z"/>
<path d="M2105 3341 c13 -14 17 -14 30 0 14 14 13 15 -15 15 -28 0 -29 -1 -15
-15z"/>
<path d="M2027 3340 c9 -10 10 -17 1 -27 -6 -7 -9 -15 -7 -18 3 -2 10 4 16 15
10 15 9 21 -5 31 -14 11 -15 11 -5 -1z"/>
<path d="M380 3229 c-17 -17 -28 -34 -25 -39 3 -5 -4 -14 -17 -21 -20 -11 -20
-13 -4 -24 11 -8 13 -14 5 -17 -8 -3 -7 -7 3 -16 12 -10 14 -6 13 23 -1 19 2
35 8 35 5 0 7 6 4 13 -3 8 1 14 8 14 7 0 11 -6 8 -12 -2 -7 3 -15 12 -19 11
-4 14 -2 8 7 -11 17 -10 31 2 39 6 5 5 8 -3 8 -10 0 -10 3 0 14 7 8 21 12 32
10 10 -2 16 0 12 3 -15 15 -37 9 -66 -18z"/>
<path d="M346 3069 c5 -8 -9 -13 -28 -10 -5 0 -8 -6 -8 -15 0 -13 3 -14 13 -5
10 8 17 7 27 -2 10 -10 12 -9 7 5 -3 10 -1 20 5 24 7 5 8 2 3 -6 -5 -9 -4 -11
3 -6 8 5 10 2 6 -8 -7 -19 7 -21 24 -4 16 16 15 31 -2 25 -8 -3 -17 -3 -20 1
-10 10 -37 11 -30 1z"/>
<path d="M1875 3289 c-4 -6 -5 -12 -2 -15 2 -3 7 2 10 11 7 17 1 20 -8 4z"/>
<path d="M1800 3280 c-9 -6 -10 -10 -3 -10 6 0 15 5 18 10 8 12 4 12 -15 0z"/>
<path d="M1756 3198 c3 -5 10 -6 15 -3 13 9 11 12 -6 12 -8 0 -12 -4 -9 -9z"/>
<path d="M2350 3146 c22 -26 23 -28 5 -23 -19 7 -19 6 -2 -7 16 -12 16 -14 2
-20 -11 -4 -14 -12 -10 -27 5 -15 4 -19 -5 -14 -9 6 -9 3 -1 -14 7 -11 16 -21
22 -21 6 0 7 -5 3 -12 -5 -7 -3 -8 6 -3 10 6 9 11 -4 21 -10 7 -15 17 -11 23
4 7 15 1 28 -15 22 -25 23 -25 24 -5 1 12 -3 21 -9 21 -5 0 -7 7 -4 15 3 9 -1
18 -9 22 -12 4 -13 9 -5 18 7 9 7 15 1 19 -5 4 -8 16 -6 28 4 16 2 19 -7 10
-9 -9 -15 -9 -27 0 -9 7 -5 -1 9 -16z m20 -67 c0 -5 5 -7 12 -3 7 4 8 3 4 -4
-4 -6 -13 -9 -21 -5 -17 6 -20 23 -5 23 6 0 10 -5 10 -11z"/>
<path d="M1694 2948 l-19 -23 25 20 c14 11 27 21 29 22 2 2 0 3 -6 3 -5 0 -18
-10 -29 -22z"/>
<path d="M1736 2822 c-10 -16 9 -30 21 -17 10 10 9 14 -2 19 -8 3 -16 2 -19
-2z"/>
<path d="M1780 2805 c-6 -8 -9 -19 -5 -25 7 -11 34 15 35 33 0 12 -17 8 -30
-8z"/>
<path d="M2313 2778 c-26 -13 -30 -25 -8 -25 8 0 13 3 10 5 -3 3 3 11 13 18
20 16 15 17 -15 2z"/>
<path d="M1935 2730 c3 -5 8 -10 11 -10 2 0 4 5 4 10 0 6 -5 10 -11 10 -5 0
-7 -4 -4 -10z"/>
<path d="M2086 2673 c-6 -14 -5 -15 5 -6 7 7 10 15 7 18 -3 3 -9 -2 -12 -12z"/>
<path d="M2124 2640 c0 -9 5 -17 11 -17 6 0 11 8 11 17 0 9 -5 17 -11 17 -6 0
-11 -8 -11 -17z"/>
<path d="M2027 2636 c-4 -10 -1 -13 8 -9 8 3 12 9 9 14 -7 12 -11 11 -17 -5z"/>
<path d="M1825 2530 c3 -5 8 -10 11 -10 2 0 4 5 4 10 0 6 -5 10 -11 10 -5 0
-7 -4 -4 -10z"/>
<path d="M2286 3350 c5 -8 9 -28 9 -45 1 -25 5 -30 30 -31 45 -2 46 -3 43 -20
-2 -10 3 -19 10 -21 6 -3 12 0 12 7 0 6 -6 8 -12 4 -7 -4 -9 -3 -5 1 9 11 37
16 34 7 -2 -8 7 -12 26 -12 7 1 4 7 -7 15 -10 8 -19 27 -20 44 -1 16 -5 33
-10 38 -4 4 -6 -1 -4 -12 2 -15 -2 -19 -17 -17 -11 2 -26 4 -32 4 -7 1 -13 5
-13 10 0 4 -4 7 -9 6 -5 -2 -17 6 -26 17 -9 11 -13 13 -9 5z m54 -63 c0 -2 -8
-3 -18 -3 -10 0 -19 6 -19 13 0 8 6 9 19 2 10 -5 18 -11 18 -12z m39 -10 c0
-9 -2 -9 -6 1 -2 6 -8 10 -13 7 -4 -3 -11 2 -14 10 -4 13 -2 14 14 5 11 -6 20
-16 19 -23z"/>
<path d="M3793 3270 c-27 -42 -43 -74 -37 -79 32 -30 226 -69 338 -69 181 0
332 45 486 143 125 80 146 75 -324 75 l-416 0 -47 -70z"/>
<path d="M622 3289 c10 -5 15 -17 12 -27 -5 -14 -3 -14 6 2 10 15 9 20 -1 27
-8 5 -18 9 -24 9 -5 -1 -2 -5 7 -11z"/>
<path d="M662 3283 c1 -5 -3 -19 -10 -33 -12 -22 -12 -23 1 -7 19 23 34 3 16
-21 -12 -15 -11 -15 6 0 14 13 16 21 8 29 -6 6 -9 18 -6 25 3 8 0 14 -6 14 -6
0 -10 -3 -9 -7z"/>
<path d="M1940 3280 c0 -5 5 -10 10 -10 6 0 10 5 10 10 0 6 -4 10 -10 10 -5 0
-10 -4 -10 -10z"/>
<path d="M704 3255 c11 -8 22 -12 25 -9 6 6 -19 24 -34 24 -5 -1 -1 -7 9 -15z"/>
<path d="M1932 3248 c2 -6 10 -13 16 -14 7 -1 8 0 2 3 -5 2 -8 9 -4 14 3 5 0
9 -6 9 -7 0 -10 -5 -8 -12z"/>
<path d="M1986 3244 c-11 -8 -16 -14 -10 -14 13 0 39 18 34 24 -3 2 -14 -2
-24 -10z"/>
<path d="M520 3235 c-19 -22 -8 -25 13 -3 9 10 13 18 8 18 -5 0 -14 -7 -21
-15z"/>
<path d="M590 3240 c0 -5 5 -10 11 -10 5 0 7 5 4 10 -3 6 -8 10 -11 10 -2 0
-4 -4 -4 -10z"/>
<path d="M2027 3239 c7 -9 10 -19 6 -22 -3 -4 -1 -7 5 -7 17 0 15 16 -5 31
-16 12 -17 12 -6 -2z"/>
<path d="M2110 3240 c0 -5 7 -7 15 -4 8 4 15 8 15 10 0 2 -7 4 -15 4 -8 0 -15
-4 -15 -10z"/>
<path d="M531 3212 c-14 -27 14 -25 36 2 l18 21 -24 -20 c-21 -18 -24 -18 -18
-2 8 23 0 22 -12 -1z"/>
<path d="M2085 3219 c-4 -6 -4 -13 -1 -16 3 -4 6 -1 6 6 0 7 5 9 12 5 7 -4 8
-3 4 4 -9 15 -13 15 -21 1z"/>
<path d="M2136 3217 c3 -10 9 -15 12 -12 3 3 0 11 -7 18 -10 9 -11 8 -5 -6z"/>
<path d="M2169 3209 c-12 -24 3 -50 16 -28 5 8 4 10 -3 5 -14 -9 -15 3 -2 24
8 12 10 12 16 -3 3 -9 10 -17 15 -17 13 0 -1 28 -17 34 -8 3 -19 -4 -25 -15z"/>
<path d="M611 3207 c-8 -10 -7 -14 2 -14 8 0 14 6 14 14 0 7 -1 13 -2 13 -2 0
-8 -6 -14 -13z"/>
<path d="M1944 3205 c-18 -15 -18 -15 0 -8 11 4 17 2 13 -3 -3 -5 3 -10 14
-10 18 0 18 2 5 12 -9 6 -13 14 -9 17 12 13 -3 7 -23 -8z"/>
<path d="M1991 3213 c-1 -17 16 -25 25 -12 4 7 3 9 -4 5 -5 -3 -13 0 -15 6 -4
9 -6 10 -6 1z"/>
<path d="M2386 3210 c5 -8 9 -18 9 -22 0 -3 3 -9 7 -13 3 -4 5 0 4 9 -1 9 -8
22 -16 29 -10 10 -11 9 -4 -3z"/>
<path d="M430 3200 c0 -5 5 -10 11 -10 5 0 7 5 4 10 -3 6 -8 10 -11 10 -2 0
-4 -4 -4 -10z"/>
<path d="M690 3199 c0 -5 5 -7 10 -4 6 3 10 8 10 11 0 2 -4 4 -10 4 -5 0 -10
-5 -10 -11z"/>
<path d="M745 3200 c-3 -5 -1 -10 4 -10 6 0 11 5 11 10 0 6 -2 10 -4 10 -3 0
-8 -4 -11 -10z"/>
<path d="M1658 3202 c9 -6 6 -12 -13 -20 -14 -6 -25 -17 -25 -23 0 -7 9 -4 20
6 20 18 21 18 14 -1 -7 -17 -6 -18 11 -4 15 12 17 12 10 1 -6 -10 -4 -12 5 -6
9 5 11 4 6 -4 -4 -6 -12 -8 -18 -5 -7 4 -8 2 -4 -4 4 -7 2 -12 -3 -12 -6 0
-11 5 -11 10 0 6 -4 10 -9 10 -5 0 -7 -13 -6 -29 2 -20 -2 -28 -10 -25 -16 7
-29 -12 -15 -21 5 -3 10 -1 10 4 0 6 6 10 13 9 6 -2 11 3 9 10 -1 7 12 19 29
26 31 13 35 22 18 43 -7 7 -6 14 1 18 5 3 10 12 10 18 0 8 -3 8 -9 -2 -6 -9
-11 -10 -15 -2 -4 6 -13 11 -19 11 -9 0 -8 -3 1 -8z"/>
<path d="M1885 3200 c3 -5 11 -10 16 -10 6 0 7 5 4 10 -3 6 -11 10 -16 10 -6
0 -7 -4 -4 -10z"/>
<path d="M2119 3208 c-6 -21 -5 -38 1 -38 5 0 8 9 7 20 -1 17 -5 26 -8 18z"/>
<path d="M715 3180 c3 -5 8 -10 11 -10 2 0 4 5 4 10 0 6 -5 10 -11 10 -5 0 -7
-4 -4 -10z"/>
<path d="M1875 3180 c3 -6 1 -10 -6 -10 -7 0 -10 -3 -6 -6 3 -3 13 -2 22 4 16
8 16 9 1 15 -10 4 -15 3 -11 -3z"/>
<path d="M2079 3173 c-13 -16 -12 -17 4 -4 9 7 17 15 17 17 0 8 -8 3 -21 -13z"/>
<path d="M1577 3150 c-10 -16 -14 -30 -9 -30 6 0 13 7 16 16 3 8 10 12 16 9 5
-3 10 3 10 14 0 30 -13 26 -33 -9z"/>
<path d="M476 3154 c-24 -24 -19 -30 7 -8 12 10 24 20 26 21 2 2 -1 3 -7 3 -6
0 -18 -7 -26 -16z"/>
<path d="M2198 3163 c7 -3 16 -2 19 1 4 3 -2 6 -13 5 -11 0 -14 -3 -6 -6z"/>
<path d="M2441 3161 c-11 -7 -9 -10 7 -15 11 -4 22 -14 24 -23 2 -14 8 -12 32
10 16 15 27 30 23 33 -3 3 -14 -3 -23 -15 -13 -15 -21 -18 -31 -10 -7 6 -10
15 -7 20 7 11 -7 11 -25 0z"/>
<path d="M2233 3145 c0 -8 4 -15 9 -15 4 0 8 4 8 9 0 6 -4 12 -8 15 -5 3 -9
-1 -9 -9z"/>
<path d="M496 3133 c-6 -14 -5 -15 5 -6 7 7 10 15 7 18 -3 3 -9 -2 -12 -12z"/>
<path d="M1857 3143 c-7 -7 11 -33 23 -33 3 0 7 6 7 14 0 8 -6 12 -15 8 -10
-3 -13 -1 -8 6 8 13 3 16 -7 5z"/>
<path d="M1947 3139 c7 -7 15 -10 18 -7 3 3 -2 9 -12 12 -14 6 -15 5 -6 -5z"/>
<path d="M2015 3140 c3 -5 8 -10 11 -10 2 0 4 5 4 10 0 6 -5 10 -11 10 -5 0
-7 -4 -4 -10z"/>
<path d="M2056 3142 c-3 -5 1 -9 9 -9 8 0 12 4 9 9 -3 4 -7 8 -9 8 -2 0 -6 -4
-9 -8z"/>
<path d="M2095 3140 c3 -5 8 -10 11 -10 2 0 4 5 4 10 0 6 -5 10 -11 10 -5 0
-7 -4 -4 -10z"/>
<path d="M2189 3137 c10 -13 11 -20 2 -30 -8 -10 -7 -14 4 -14 8 0 11 5 8 10
-4 6 0 8 10 4 23 -9 12 15 -16 32 -20 13 -21 13 -8 -2z"/>
<path d="M738 3117 c2 -10 5 -16 6 -15 1 2 7 10 13 18 10 13 8 16 -6 16 -13 0
-17 -6 -13 -19z"/>
<path d="M1590 3129 c0 -6 24 -19 34 -19 2 0 3 6 3 14 0 8 -9 14 -19 13 -10
-1 -18 -4 -18 -8z"/>
<path d="M2150 3121 c0 -6 4 -12 8 -15 5 -3 9 1 9 9 0 8 -4 15 -9 15 -4 0 -8
-4 -8 -9z"/>
<path d="M2255 3119 c-11 -16 -1 -19 13 -3 7 8 8 14 3 14 -5 0 -13 -5 -16 -11z"/>
<path d="M476 3107 c3 -10 9 -15 12 -12 3 3 0 11 -7 18 -10 9 -11 8 -5 -6z"/>
<path d="M1910 3101 c0 -6 4 -13 10 -16 6 -3 7 1 4 9 -7 18 -14 21 -14 7z"/>
<path d="M1841 3081 c-11 -11 -22 -17 -25 -15 -3 2 -4 1 -1 -3 3 -4 14 -7 26
-8 13 -1 16 2 10 8 -7 7 -5 15 7 23 9 8 14 14 10 14 -5 0 -17 -9 -27 -19z"/>
<path d="M2430 3092 c0 -5 7 -15 15 -22 11 -9 12 -16 5 -25 -8 -9 -6 -14 5
-19 9 -3 14 -2 11 3 -3 5 1 14 9 21 18 15 10 31 -11 23 -9 -3 -14 0 -12 7 2 7
-3 15 -9 17 -7 3 -13 0 -13 -5z"/>
<path d="M716 3081 c-3 -5 2 -15 12 -22 15 -12 16 -12 5 2 -7 9 -10 19 -6 22
3 4 4 7 0 7 -3 0 -8 -4 -11 -9z"/>
<path d="M1790 3075 c0 -8 2 -15 4 -15 2 0 6 7 10 15 3 8 1 15 -4 15 -6 0 -10
-7 -10 -15z"/>
<path d="M2242 3076 c7 -8 15 -12 17 -11 5 6 -10 25 -20 25 -5 0 -4 -6 3 -14z"/>
<path d="M1873 3065 c0 -8 4 -12 9 -9 5 3 6 10 3 15 -9 13 -12 11 -12 -6z"/>
<path d="M2175 3060 c-2 -3 5 -6 15 -7 11 -1 22 2 24 5 3 4 -4 8 -15 8 -11 0
-22 -3 -24 -6z"/>
<path d="M2270 3060 c0 -5 7 -7 15 -4 8 4 15 8 15 10 0 2 -7 4 -15 4 -8 0 -15
-4 -15 -10z"/>
<path d="M2490 3052 c-8 -9 -15 -20 -15 -25 0 -4 -6 -11 -13 -16 -8 -5 -13
-12 -13 -17 1 -5 -4 -9 -11 -9 -14 0 -20 -33 -7 -41 5 -3 12 3 16 13 3 10 15
28 26 40 11 13 16 27 12 35 -6 10 -5 10 5 1 7 -6 9 -17 4 -24 -19 -31 -8 -69
16 -54 7 4 7 13 1 24 -7 13 -5 24 6 40 13 19 13 25 2 36 -12 11 -16 11 -29 -3z"/>
<path d="M755 3050 c-3 -6 1 -7 9 -4 18 7 21 14 7 14 -6 0 -13 -4 -16 -10z"/>
<path d="M468 3043 c7 -3 16 -2 19 1 4 3 -2 6 -13 5 -11 0 -14 -3 -6 -6z"/>
<path d="M515 3041 c-3 -5 -2 -12 3 -15 5 -3 9 1 9 9 0 17 -3 19 -12 6z"/>
<path d="M710 3040 c0 -5 5 -10 11 -10 5 0 7 5 4 10 -3 6 -8 10 -11 10 -2 0
-4 -4 -4 -10z"/>
<path d="M1627 3044 c-3 -3 -3 -13 0 -22 4 -10 2 -13 -5 -8 -6 3 -13 2 -16 -3
-3 -4 -20 -7 -37 -5 -27 3 -30 2 -19 -11 10 -12 16 -13 26 -4 11 9 14 8 14 -1
0 -8 3 -10 7 -6 4 3 13 -4 20 -16 l13 -23 -3 25 c-2 20 2 25 21 24 16 -1 20 2
12 11 -5 6 -8 14 -5 17 3 3 -1 10 -8 16 -8 7 -16 9 -20 6z"/>
<path d="M2234 3025 c0 -28 8 -24 13 5 2 11 -1 20 -5 20 -4 0 -8 -11 -8 -25z"/>
<path d="M536 3013 c-6 -14 -5 -15 5 -6 7 7 10 15 7 18 -3 3 -9 -2 -12 -12z"/>
<path d="M748 3023 c6 -2 18 -2 25 0 6 3 1 5 -13 5 -14 0 -19 -2 -12 -5z"/>
<path d="M1869 3018 c7 -9 9 -23 5 -30 -6 -10 -4 -11 7 0 11 10 10 15 -6 30
-17 15 -18 15 -6 0z"/>
<path d="M1796 3003 c-4 -9 -4 -14 0 -10 4 4 13 -1 21 -11 12 -15 13 -14 2 8
-16 33 -16 33 -23 13z"/>
<path d="M2200 3006 c0 -2 8 -10 18 -17 15 -13 16 -12 3 4 -13 16 -21 21 -21
13z"/>
<path d="M2260 3000 c0 -5 5 -10 11 -10 5 0 7 5 4 10 -3 6 -8 10 -11 10 -2 0
-4 -4 -4 -10z"/>
<path d="M2290 3000 c0 -5 5 -10 10 -10 6 0 10 5 10 10 0 6 -4 10 -10 10 -5 0
-10 -4 -10 -10z"/>
<path d="M2460 2960 c-7 -16 -17 -30 -23 -30 -6 0 -7 -3 -4 -7 9 -8 -13 -34
-23 -28 -4 3 -16 -8 -26 -23 -12 -19 -13 -23 -3 -15 9 7 27 10 41 8 15 -3 31
1 38 10 7 8 15 13 19 11 4 -3 7 4 7 14 0 10 -3 17 -7 14 -9 -5 -19 22 -11 30
7 7 14 46 8 46 -2 0 -9 -13 -16 -30z m-5 -51 c-6 -16 -4 -20 6 -13 12 6 12 5
0 -9 -15 -18 -26 -23 -16 -7 8 13 -8 13 -22 -1 -8 -8 -13 -7 -18 2 -5 7 -4 10
3 5 6 -3 19 5 29 18 22 31 26 32 18 5z"/>
<path d="M2282 2960 c0 -14 2 -19 5 -12 2 6 2 18 0 25 -3 6 -5 1 -5 -13z"/>
<path d="M1820 2949 c0 -5 -4 -8 -8 -5 -4 2 -14 0 -22 -5 -11 -7 -9 -8 9 -6
21 3 45 27 27 27 -3 0 -6 -5 -6 -11z"/>
<path d="M2234 2920 c0 -16 3 -30 6 -30 4 0 7 14 7 30 0 17 -3 30 -7 30 -3 0
-6 -13 -6 -30z"/>
<path d="M1855 2919 c-4 -6 -4 -13 -1 -16 3 -4 6 -1 6 6 0 7 5 9 12 5 7 -4 8
-3 4 4 -9 15 -13 15 -21 1z"/>
<path d="M1790 2910 c-8 -5 -12 -11 -10 -14 3 -2 14 2 24 10 22 15 10 19 -14
4z"/>
<path d="M1955 2900 c-3 -5 -1 -10 4 -10 6 0 11 5 11 10 0 6 -2 10 -4 10 -3 0
-8 -4 -11 -10z"/>
<path d="M2080 2900 c8 -5 20 -10 25 -10 6 0 3 5 -5 10 -8 5 -19 10 -25 10 -5
0 -3 -5 5 -10z"/>
<path d="M2285 2900 c3 -5 8 -10 11 -10 2 0 4 5 4 10 0 6 -5 10 -11 10 -5 0
-7 -4 -4 -10z"/>
<path d="M1583 2873 l11 -25 18 22 c14 17 18 19 18 6 0 -9 5 -16 10 -16 27 0
-11 35 -38 36 -29 2 -30 0 -19 -23z"/>
<path d="M1661 2890 c-8 -4 -11 -13 -7 -18 4 -6 -3 -16 -15 -22 -26 -14 -17
-24 24 -26 25 -2 27 0 13 8 -16 9 -16 12 -2 33 17 25 9 39 -13 25z"/>
<path d="M2214 2875 c1 -8 6 -18 11 -22 4 -4 5 -3 2 4 -4 6 -2 13 5 15 8 3 6
6 -4 10 -10 4 -15 2 -14 -7z"/>
<path d="M2265 2880 c3 -5 11 -10 16 -10 6 0 7 5 4 10 -3 6 -11 10 -16 10 -6
0 -7 -4 -4 -10z"/>
<path d="M430 2877 c0 -4 20 -29 45 -55 25 -26 45 -43 45 -38 0 5 -7 17 -15
26 -13 15 -13 19 1 36 8 10 13 13 9 7 -5 -11 7 -18 19 -10 2 1 13 -6 24 -16
21 -19 49 -15 49 7 0 10 -12 13 -39 11 -21 -2 -36 1 -33 6 3 4 12 6 19 3 7 -3
16 2 20 11 4 11 2 14 -7 8 -17 -10 -68 -10 -91 0 -13 6 -16 6 -12 -2 10 -15
-7 -14 -22 1 -7 7 -12 9 -12 5z m57 -32 c0 -8 -4 -12 -9 -9 -5 3 -6 10 -3 15
9 13 12 11 12 -6z"/>
<path d="M1876 2867 c3 -10 9 -15 12 -12 3 3 0 11 -7 18 -10 9 -11 8 -5 -6z"/>
<path d="M585 2860 c-3 -4 3 -7 12 -6 10 0 18 -5 19 -11 1 -7 2 -18 3 -25 1
-7 8 -5 19 5 10 10 22 14 27 10 4 -5 2 1 -5 12 -12 20 -65 31 -75 15z m65 -15
c0 -2 -6 -5 -13 -8 -8 -3 -14 1 -14 8 0 7 6 11 14 8 7 -3 13 -6 13 -8z"/>
<path d="M1857 2846 c-4 -10 -3 -15 3 -11 6 3 10 1 10 -6 0 -7 3 -10 6 -6 3 3
2 13 -4 22 -8 16 -9 16 -15 1z"/>
<path d="M1976 2847 c3 -10 9 -15 12 -12 3 3 0 11 -7 18 -10 9 -11 8 -5 -6z"/>
<path d="M1953 2838 c3 -9 1 -19 -6 -21 -7 -3 -2 -4 10 -4 18 1 20 4 10 17
-19 25 -20 26 -14 8z"/>
<path d="M2096 2842 c-3 -5 1 -9 9 -9 8 0 12 4 9 9 -3 4 -7 8 -9 8 -2 0 -6 -4
-9 -8z"/>
<path d="M2190 2846 c0 -2 7 -7 16 -10 8 -3 12 -2 9 4 -6 10 -25 14 -25 6z"/>
<path d="M2438 2843 c10 -4 7 -9 -10 -17 -12 -7 -22 -18 -20 -24 1 -7 -3 -12
-10 -12 -6 0 -9 -3 -6 -6 4 -3 17 2 30 10 14 9 26 14 29 12 2 -2 5 7 5 20 1
16 -3 24 -15 23 -11 0 -12 -2 -3 -6z"/>
<path d="M2174 2832 c3 -5 0 -13 -6 -15 -9 -4 -10 -6 -1 -6 17 -1 25 16 12 25
-7 4 -9 3 -5 -4z"/>
<path d="M1905 2815 c17 -14 18 -17 5 -26 -12 -9 -12 -10 -1 -7 24 7 24 26 -1
38 -22 11 -22 11 -3 -5z"/>
<path d="M2028 2818 c8 -9 11 -22 7 -27 -3 -6 0 -8 9 -5 8 3 17 12 20 20 3 9
1 12 -5 9 -5 -4 -18 -1 -27 7 -15 12 -16 11 -4 -4z"/>
<path d="M2124 2815 c-5 -11 -10 -12 -18 -5 -9 7 -12 4 -11 -10 1 -11 5 -23
10 -27 4 -5 5 -2 1 5 -4 6 -3 12 3 12 6 0 15 9 21 20 6 11 8 20 5 20 -3 0 -8
-7 -11 -15z"/>
<path d="M1994 2809 c-3 -6 -2 -15 3 -20 5 -5 9 -1 10 11 2 22 -2 25 -13 9z"/>
<path d="M660 2800 c0 -5 7 -10 15 -10 8 0 15 5 15 10 0 6 -7 10 -15 10 -8 0
-15 -4 -15 -10z"/>
<path d="M1625 2800 c3 -6 -1 -13 -9 -16 -9 -3 -16 -10 -16 -15 0 -6 9 -5 20
1 11 6 25 8 30 5 6 -3 10 -1 10 5 0 8 5 7 13 -2 16 -16 18 -48 3 -48 -6 0 -4
-5 4 -10 8 -5 20 -10 25 -10 6 0 3 5 -5 10 -16 10 -17 10 30 14 16 2 15 23 -2
44 -7 8 -15 9 -21 3 -6 -6 -15 -5 -24 5 -8 8 -19 12 -24 9 -5 -4 -9 -1 -9 4 0
6 -7 11 -16 11 -8 0 -12 -5 -9 -10z m99 -29 c3 -5 -1 -14 -8 -20 -12 -10 -14
-9 -11 6 2 10 4 19 4 21 2 5 10 2 15 -7z"/>
<path d="M2137 2795 c-6 -15 10 -32 20 -21 4 3 1 6 -5 6 -6 0 -9 7 -6 15 4 8
4 15 1 15 -3 0 -7 -7 -10 -15z"/>
<path d="M2010 2760 c0 -5 5 -10 10 -10 6 0 10 5 10 10 0 6 -4 10 -10 10 -5 0
-10 -4 -10 -10z"/>
<path d="M2354 2748 c3 -12 5 -23 7 -23 1 0 3 -10 4 -22 1 -12 -1 -20 -6 -18
-4 3 -10 -1 -13 -7 -3 -7 -3 -3 -1 9 7 28 -7 36 -31 17 -10 -9 -14 -13 -7 -10
6 4 14 2 18 -4 7 -12 -19 -53 -28 -43 -4 3 -7 1 -7 -5 0 -15 17 -16 26 -1 3 6
22 17 41 25 18 8 31 19 28 25 -4 5 -2 16 5 24 8 10 8 15 -4 22 -8 4 -15 12
-15 18 0 5 -4 11 -10 13 -7 2 -9 -6 -7 -20z"/>
<path d="M2430 2759 c0 -5 5 -7 10 -4 6 3 10 8 10 11 0 2 -4 4 -10 4 -5 0 -10
-5 -10 -11z"/>
<path d="M1799 2705 c-1 -3 -2 -8 -3 -12 -1 -5 -5 -15 -10 -23 -7 -12 -6 -13
4 -3 13 12 23 43 14 43 -2 0 -5 -2 -5 -5z"/>
<path d="M2267 2692 c-12 -13 -13 -19 -5 -20 7 0 22 -2 32 -4 10 -2 20 3 22
10 2 8 1 9 -3 1 -4 -8 -10 -4 -17 10 -12 21 -13 21 -29 3z"/>
<path d="M1720 2655 c-7 -8 -8 -15 -2 -15 5 0 15 7 22 15 7 8 8 15 2 15 -5 0
-15 -7 -22 -15z"/>
<path d="M1833 2654 c-3 -8 -9 -11 -14 -8 -5 3 -9 1 -9 -4 0 -6 7 -13 16 -16
9 -4 14 -9 11 -13 -12 -11 13 -42 33 -40 11 1 19 6 17 12 -2 5 -13 9 -23 7
-15 -2 -13 1 6 13 l25 15 -24 -3 c-18 -1 -24 3 -26 19 -1 22 17 27 32 9 4 -4
3 -5 -3 -2 -7 4 -15 0 -18 -9 -4 -12 -1 -14 13 -9 13 4 24 -1 34 -15 10 -14
17 -18 22 -10 4 7 11 8 18 2 7 -5 19 -8 28 -7 10 2 16 -4 15 -13 0 -9 4 -17
11 -17 6 0 15 -4 20 -9 4 -5 3 -6 -4 -2 -19 10 -23 -9 -5 -21 15 -9 17 -6 18
23 0 25 -5 35 -25 45 -14 7 -30 12 -35 10 -4 -1 -14 3 -21 9 -10 8 -14 7 -18
-2 -4 -10 -8 -10 -16 2 -5 8 -8 17 -5 21 2 4 -6 11 -18 15 -39 13 -49 13 -55
-2z"/>
<path d="M2180 2655 c-7 -9 -11 -17 -9 -20 3 -2 10 5 17 15 14 24 10 26 -8 5z"/>
<path d="M1893 2587 c2 -31 9 -33 31 -11 9 8 16 11 16 5 0 -21 -4 -26 -19 -23
-13 3 -13 2 0 -14 10 -14 6 -13 -18 4 -17 12 -34 19 -36 15 -3 -5 13 -21 36
-36 24 -18 38 -23 34 -14 -3 9 3 25 14 38 20 23 26 44 10 34 -5 -3 -13 -1 -16
5 -5 8 -11 8 -20 0 -10 -8 -16 -7 -23 7 -9 14 -10 13 -9 -10z"/>
</g>
</svg>
